<svg xmlns="http://www.w3.org/2000/svg" viewBox="0 13 99.25 49.599998474121094" data-asc="0.875"><g fill="#2e2e2e"><g fill="#2e2e2e" transform="translate(0, 0)"><path d="M41.10 54Q41.05 54 40.90 53.90Q40.75 53.80 40.65 53.80L40.50 53.80Q40.45 53.85 40.35 53.85Q40.15 53.40 39.75 53.15Q39.65 53.10 39.35 53.10Q39 52.60 38.20 52.30Q38.20 52.30 38.20 52.27Q38.20 52.25 38.25 52.20Q38.05 52.05 38.05 52.05Q38 52.05 38 52.10L37.95 52.10Q37.80 52.10 37.10 51.25Q37.10 51.15 37.90 50.80Q37.70 50.70 37.52 50.58Q37.35 50.45 37.10 50.25Q37 49.90 36.48 49.52Q35.95 49.15 35.85 49.25L35.10 49.05Q35.10 48.95 34.95 48.85Q34.80 48.75 34.85 48.75Q34.75 48.75 34.75 48.80Q34.75 48.85 34.70 48.85Q34.60 48.85 33.98 48.67Q33.35 48.50 33.30 48.50Q33.30 48.50 33.10 48.60L32.45 47.90Q32.15 48 32.25 48Q32.15 48 31.90 47.77Q31.65 47.55 31.60 47.55Q31.50 47.55 31.52 47.60Q31.55 47.65 31.50 47.65Q31.45 47.65 31.30 47.52Q31.15 47.40 31.10 47.40L30.90 47.40Q30.90 47.35 30.95 47.30Q30.85 47.20 30.80 47.20Q30.50 47.20 30.10 47.05Q29.60 46.80 29 46.55Q28.40 46.30 27.65 46Q22.20 43.95 21.60 43.95L21.25 44.05L21.25 43.95Q20.85 43.55 20.75 43.55Q20.55 43.55 20.45 43.65Q19.75 43.35 19.80 43.25Q19.75 43.30 19.75 43.35Q19.30 43.10 19.05 42.70Q18.85 42.80 18.85 42.80Q18.75 42.80 18.72 42.75Q18.70 42.70 18.65 42.70Q18.55 42.70 18.30 42.88Q18.05 43.05 17.95 43.05Q17.90 43.05 17.68 42.92Q17.45 42.80 17.40 42.80L17.20 42.85Q17 42.55 16.75 42.45Q16.75 42.40 16.65 42.40Q16.55 42.40 16.55 42.48Q16.55 42.55 16.45 42.55Q16.40 42.55 16.40 42.50Q16.40 42.40 16.35 42.40Q16.25 42.40 16.22 42.48Q16.20 42.55 16.15 42.55Q15.40 42.20 14.90 42.20Q14.85 42.20 14.75 42.30Q14.65 42.20 14.50 42.02Q14.35 41.85 14.15 41.85L13.80 41.95L13.65 41.95Q13.60 41.95 13.48 41.95Q13.35 41.95 13.20 41.90L13.05 42.05Q12.90 41.85 12.55 41.55Q12.45 41.60 12.05 42Q12.00 42.05 11.95 42.17Q11.90 42.30 11.80 42.45Q11.45 42.80 11.08 43.17Q10.70 43.55 10.70 43.80Q10.55 43.85 10.43 43.98Q10.30 44.10 10.20 44.20Q10.20 44.30 9.85 44.80Q9.70 44.85 9.73 44.83Q9.75 44.80 9.58 45Q9.40 45.20 8.55 45.90Q8.50 45.95 8.20 46.05L7.45 46.75Q7.30 46.80 7.30 46.80L6.45 47.40L6.20 47.25Q6.15 47.25 6.10 47.33Q6.05 47.40 6.00 47.40Q5.95 47.40 5.95 47.30Q5.90 47.25 5.85 47.25Q5.95 47.25 5.60 47.45L5.15 47.10L4.85 47.25Q4.85 47.25 4.65 47Q4.45 46.75 4.35 46.75Q4.35 46.70 4.45 46.60L4.30 46.30L4.30 46.15Q4.30 46 4.25 45.73Q4.20 45.45 4.05 45.10Q4.05 44.85 4.28 44.63Q4.50 44.40 4.50 44.20L5.00 44.45Q5.00 44.55 5.00 44.70Q5.00 44.85 5.05 45.05Q5.35 45.80 5.85 46Q5.90 46.05 5.98 46.25Q6.05 46.45 6.10 46.45Q6.20 46.45 6.15 46.40L6.20 46.40L6.40 46.55Q6.50 46.30 6.70 46.30Q6.75 46.30 6.75 46.35Q6.75 46.40 6.85 46.40Q6.90 46.40 7.18 46.02Q7.45 45.65 7.50 45.65Q7.55 45.65 7.55 45.70L7.60 45.70Q7.55 45.70 8.65 44.60L9.10 43.95Q9.20 43.95 10.05 43.15L10.05 42.75Q10.25 42.50 10.48 42.15Q10.70 41.80 11.05 41.40Q10.85 41.40 10.65 41.45Q10.45 41.50 10.40 41.50Q10.35 41.50 10.35 41.42Q10.35 41.35 10.25 41.35Q10.25 41.35 10.20 41.38Q10.15 41.40 10.05 41.45L9.85 41.45Q9.55 41.45 9.10 41.30L8.95 41.30Q8.90 41.30 8.78 41.40Q8.65 41.50 8.55 41.50L8.05 41.50Q8 41.50 8 41.42Q8 41.35 7.95 41.35Q7.85 41.35 7.33 41.50Q6.80 41.65 6.70 41.65Q6.65 41.65 6.60 41.60Q6.55 41.55 6.50 41.55L6.10 41.65Q6.05 41.70 5.95 41.80Q5.85 41.90 5.75 41.90L5.70 41.90Q5.70 41.85 5.60 41.85Q5.55 41.85 5.43 41.95Q5.30 42.05 5.25 42.05Q5.15 42.05 5.15 42L5.00 42Q5.00 42.05 4.90 42.05L4.70 41.85Q4.65 41.90 4.48 42.10Q4.30 42.30 4.10 42.20Q4.05 42.30 4.03 42.40Q4.00 42.50 4.00 42.60L4.05 42.70Q4.10 42.70 4.20 42.80L4.75 42.35Q4.75 42.35 5.15 42.90L4.75 43.25Q4.55 43.05 4.30 43.05Q4.25 43.05 3.83 43.33Q3.40 43.60 3.35 43.60Q3.30 43.60 3.25 43.52Q3.20 43.45 3.15 43.45Q3.10 43.45 3.08 43.50Q3.05 43.55 2.95 43.55L2.80 43.45L2.35 43.45Q2.30 43.45 2.30 43.52Q2.30 43.60 2.20 43.60Q2.15 43.60 2.13 43.55Q2.10 43.50 2.05 43.50Q1.80 43.50 1.60 43.85Q1.45 43.70 1.30 43.70Q1.15 43.70 0.95 43.90L0.75 43.75Q0.70 43.75 0.70 43.80L0.65 43.80L0.45 43.60Q0.20 43.60 0.10 43.15L0 42.60L0 42.20L0.20 41.90Q0.85 41.35 1 41.35Q1.10 41.35 1.25 41.40L1.45 41.40Q1.55 41.40 1.70 41.33Q1.85 41.25 1.90 41.25Q1.85 41.25 1.88 41.27Q1.90 41.30 1.95 41.25L1.90 41.25Q1.80 41.30 2 41.40Q3 41.10 2.95 41.10L3 41.10Q3 41.15 3.05 41.15Q3.15 41.15 3.27 41.05Q3.40 40.95 3.50 40.95Q3.75 40.95 4.18 40.92Q4.60 40.90 5.10 40.85L5.60 40.70Q5.70 40.70 5.65 40.75Q5.60 40.80 5.65 40.80L6.15 40.80Q6.25 40.80 6.40 40.73Q6.55 40.65 6.60 40.65Q6.70 40.65 6.65 40.70Q6.60 40.75 6.65 40.75L7.45 40.75L7.60 40.70Q7.70 40.70 7.98 40.75Q8.25 40.80 8.30 40.80Q8.35 40.80 8.53 40.75Q8.70 40.70 8.80 40.70L8.95 40.85Q9.15 40.80 9.28 40.80Q9.40 40.80 9.45 40.75L9.55 40.85Q9.65 40.85 9.85 40.83Q10.05 40.80 10.30 40.75Q10.15 40.70 10.50 40.70Q10.55 40.70 10.65 40.77Q10.75 40.85 10.80 40.85Q10.85 40.85 10.88 40.80Q10.90 40.75 10.95 40.75Q11.00 40.75 11.05 40.80Q11.10 40.85 11.15 40.85Q11.20 40.85 11.50 40.75Q11.90 40.10 12.25 39.45Q12.60 38.80 12.90 38.15Q13.05 37.95 13.20 37.73Q13.35 37.50 13.45 37.15Q13.65 37.10 13.75 36.75Q13.85 36.75 13.98 36.63Q14.10 36.50 14.10 36.05Q14.65 35.35 14.55 35.10L15.35 34.05Q15.30 33.75 15.35 33.55Q15.40 33.55 15.50 33.40Q15.60 33.25 15.75 33.25Q15.80 33.25 15.85 33.30Q15.85 32.85 15.90 32.75Q15.85 32.60 15.85 32.50L16 32.20Q16.20 32.15 16.32 32.05Q16.45 31.95 16.55 31.85Q16.55 31.85 16.72 31.40Q16.90 30.95 17.10 30.95Q17.20 30.60 17.95 29.70L18.30 28.75Q18.90 28.40 18.80 27.85Q19.05 27.50 19.32 27.22Q19.60 26.95 19.95 26.70L20.10 26.40Q20.05 26.35 19.95 26.45L20.10 26.05Q20.10 26.05 20.10 26.20Q20.10 26.35 20.25 26.20Q20.35 26.05 20.25 25.95Q20.45 25.75 20.35 25.65Q20.35 25.60 20.35 25.60L20.35 25.65Q20.40 25.65 20.50 25.65Q20.70 25.65 20.70 25.35Q20.70 25.25 20.75 24.95Q20.80 24.65 20.85 24.55Q20.85 24.60 20.95 24.80Q21 24.70 21.10 24.55Q21.20 24.40 21.30 24.20L21.70 23.80Q21.80 23.55 21.75 23.55Q21.90 23.45 22.25 23.10Q22.30 23 22.30 22.88Q22.30 22.75 22.35 22.55Q22.70 22.35 22.70 22.15Q22.95 22.05 23.20 21.80Q23.15 21.70 23.15 21.60Q23.15 21.50 23.10 21.35Q23.15 21.30 23.15 21.22Q23.15 21.15 23.20 21.10Q24.10 21 24.15 20.35L24.90 19.75Q25 19.65 24.90 19.60Q25.05 19.60 25.20 19.05Q25.60 18.75 25.90 18.70Q25.85 18.80 25.95 19Q26.05 18.85 26.23 18.63Q26.40 18.40 26.65 18.10Q26.60 18.05 26.55 18.10Q26.55 18.05 26.55 17.95Q26.55 17.85 26.60 17.65L26.80 17.65Q26.90 17.65 27.07 17.47Q27.25 17.30 27.35 17.30L27.40 17.35L27.40 16.95Q27.55 16.80 27.60 16.90Q27.70 16.80 27.82 16.65Q27.95 16.50 28.15 16.30Q28.45 16.35 28.48 16.35Q28.50 16.35 28.60 16.45Q29.10 15.65 29 15.65Q29.30 15.65 29.35 15.70Q29.60 15.40 29.65 15.40Q29.65 15.40 29.65 15.40L29.65 15.40Q29.60 15.40 29.80 15.60Q30.30 15.10 30.25 15.10L30.35 15.10Q30.35 15.15 30.40 15.15Q30.50 15.15 30.60 15Q30.70 14.85 30.80 14.85Q30.80 14.85 30.80 14.85L30.80 14.85Q30.90 14.90 30.95 14.90Q31 14.85 30.90 14.75Q31.20 14.70 31.85 14.20Q31.90 14.20 32.13 14.20Q32.35 14.20 32.75 14.15Q33 14 33 13.95L33 14L33.05 14Q33.10 14 33.17 13.95Q33.25 13.90 33.35 13.90Q33.30 13.90 34.35 13.55Q34.95 13.35 35.40 13.35Q35.45 13.35 35.45 13.40Q35.40 13.45 35.45 13.45Q35.50 13.45 35.67 13.38Q35.85 13.30 35.90 13.30Q35.95 13.30 36.08 13.38Q36.20 13.45 36.25 13.45Q36.35 13.45 36.60 13.20Q36.75 13.20 37.13 13.10Q37.50 13 37.55 13Q37.60 13 37.67 13.07Q37.75 13.15 37.80 13.15Q37.85 13.15 37.88 13.07Q37.90 13 37.95 13Q38 13 38.10 13.15Q38.20 13.30 38.25 13.30L38.80 13.30L38.90 13.40Q39 13.40 39.05 13.45L39.30 13.45Q39.35 13.40 39.40 13.40Q39.50 13.40 39.63 13.47Q39.75 13.55 39.80 13.55L39.90 13.55Q39.95 13.50 40 13.50Q40.10 13.50 40.23 13.63Q40.35 13.75 40.45 13.75Q40.50 13.75 40.50 13.70L40.55 13.70Q40.65 13.80 40.75 13.95Q40.85 14.10 41.35 14.20Q41.40 14.20 41.45 14.30Q41.50 14.40 41.55 14.40Q41.65 14.35 41.70 14.35Q41.75 14.40 41.85 14.70Q42.35 14.80 42.52 15.13Q42.70 15.45 42.90 15.50L42.90 15.45L43.05 16.15Q43.10 16.40 43.15 16.77Q43.20 17.15 43.30 17.65Q43.20 17.75 43.10 17.75L42.75 19.40Q42.45 20.75 41.80 21.60L41.30 22.25Q41.40 22.55 41.25 22.75Q40.80 23.40 40.35 23.40Q40.25 23.40 40.20 23.35L40.05 23.35Q40.10 23.30 40.10 23.10Q40.55 22.70 40.55 22.30L40.75 22.10L40.75 21.90Q41.25 21.40 41.25 20.70Q41.45 20.70 41.60 20.55Q41.45 20.05 41.40 20Q41.45 19.90 41.63 19.70Q41.80 19.50 41.70 19.25Q41.65 19.20 41.55 19.20Q41.65 19 41.80 18.95L41.90 18.50L41.60 18.05L41.95 17.70Q42.05 17.40 41.85 17.30L42 17.15Q42 16.90 41.88 16.92Q41.75 16.95 41.65 16.75Q41.55 16.55 41.55 15.75Q41.35 15.55 41.30 15.30L41.20 15.40L41.20 14.95L41.10 15.10Q40.95 15.05 40.88 14.85Q40.80 14.65 40.75 14.65L40.70 14.65Q40.70 14.70 40.65 14.70Q40.55 14.70 40.35 14.50Q40.15 14.30 40.10 14.30Q40 14.30 40 14.35Q40 14.40 39.90 14.40Q39.85 14.40 39.77 14.35Q39.70 14.30 39.65 14.30Q39.55 14.30 39.55 14.35Q39.55 14.40 39.50 14.40L39.35 14.40Q39.30 14.35 39.20 14.35Q39.10 14.35 39 14.25L38.90 14.35Q38.20 14.35 38.25 14.30Q37.80 14.30 37.25 14.65Q37.20 14.50 36.95 14.50L36.90 14.50Q36.70 14.50 36.55 14.80Q36.45 14.80 36.35 14.70Q36.10 14.75 35.58 15.10Q35.05 15.45 34.85 15.45L34.60 15.45Q34.60 15.45 34.40 15.25Q33.95 15.85 33.90 15.85Q33.85 15.85 33.55 15.95Q33.55 15.85 33.45 15.75Q33.35 15.85 33.20 15.97Q33.05 16.10 32.35 16.80Q31.95 16.65 31.90 16.60Q31.80 16.55 31.63 16.88Q31.45 17.20 31.35 17.30Q31.40 17.30 31.35 17.30L31.35 17.30Q31.35 17.25 31.30 17.20Q31.05 17.20 30.90 17.25Q30.80 17.50 30.35 17.80L30.20 17.70L29.80 18.05Q29.85 18.10 29.85 18.45Q28.70 19.15 28.90 19.15Q28.80 19.15 28.63 18.95Q28.45 18.75 28.55 18.65L28.45 18.65Q28.15 18.65 28.10 19Q28.10 19.10 28.15 19.05Q28.30 19.25 28.30 19.40Q28.30 19.60 28.05 19.85Q28 19.95 27.95 20.07Q27.90 20.20 27.65 20.45Q26.95 21.10 27 21.30Q27 21.25 26.90 21.25Q26.70 21.25 26.55 21.50Q26.40 21.75 26.30 21.90L25.50 22.70L25.20 23.30L24.50 23.90Q24.45 23.95 24.40 24.10Q24.35 24.25 24.30 24.50Q23.80 24.60 23.75 24.80Q23.10 25.55 22.45 26.75L22.20 26.95Q21.80 27.55 21.18 28.48Q20.55 29.40 19.70 30.65Q19.65 30.75 19.60 30.90Q19.55 31.05 19.25 31.25Q19.20 31.30 19.25 31.35Q19.05 31.55 18.80 31.95L17.75 33.85Q17.60 34 17.45 34.17Q17.30 34.35 17.10 34.70Q16.75 35.30 16.20 36.08Q15.65 36.85 14.95 37.80L14.40 38.75Q14.20 38.80 13.95 39.05Q13.75 39.35 13.53 39.83Q13.30 40.30 12.95 40.95Q13.05 41.05 13.05 41.05Q13.05 41.05 13.15 40.95Q13.15 40.95 13.15 40.95L13.20 40.95Q13.20 40.95 13.20 40.95Q13.20 40.95 13.15 40.95Q13.20 41 13.80 41.15L13.90 41.05L14.05 41.05Q14.15 41.05 14.30 41.08Q14.45 41.10 14.65 41.15Q14.90 41.30 14.75 41.30Q14.85 41.30 14.85 41.25Q14.85 41.20 14.95 41.20Q15.00 41.20 15.08 41.25Q15.15 41.30 15.25 41.30L15.35 41.30Q15.40 41.25 15.45 41.25Q15.65 41.25 15.83 41.38Q16 41.50 16.30 41.50Q16.35 41.50 16.45 41.42Q16.55 41.35 16.60 41.35Q16.65 41.35 16.72 41.42Q16.80 41.50 16.85 41.50Q16.95 41.50 16.95 41.48Q16.95 41.45 17 41.40Q17 41.40 17 41.40Q17 41.40 17 41.40Q17 41.40 17 41.40L17 41.40L17 41.40L17 41.40Q17 41.45 17.15 41.60Q17.45 41.50 17.45 41.50Q17.55 41.50 17.70 41.60Q17.85 41.70 17.90 41.70Q18 41.70 18 41.65L18.05 41.65Q18.10 41.65 18.22 41.73Q18.35 41.80 18.45 41.80Q18.50 41.80 18.55 41.75Q18.60 41.70 18.65 41.70Q18.65 41.70 18.65 41.70L18.65 41.70Q18.65 41.70 19.25 42.05L19.45 41.85Q19.40 41.90 19.40 42.05L19.60 42.10Q19.65 42.10 19.65 42.05Q19.65 42 19.70 42Q19.75 42 19.85 42.08Q19.95 42.15 20.05 42.15Q20.10 42.15 20.05 42.10Q20 42.05 20.10 42.05Q20.15 42.05 20.23 42.15Q20.30 42.25 20.40 42.25Q20.50 42.25 20.55 42.20Q20.85 42.55 20.90 42.55Q21.05 42.55 21.20 42.50L21.50 42.50L21.90 42.60Q22 42.60 22.05 42.50Q22.10 42.40 22.15 42.40Q22.15 42.40 22.15 42.40L22.15 42.40Q22.05 42.45 22.70 42.80Q22.90 42.80 23.20 43.10L23.45 42.85L23.60 43.05L23.70 43Q23.80 43 24.05 43.17Q24.30 43.35 24.35 43.35Q24.40 43.35 24.35 43.30Q24.35 43.25 24.35 43.25Q24.35 43.25 24.35 43.25Q24.35 43.25 24.35 43.30Q24.40 43.30 24.80 43.30Q24.85 43.30 24.98 43.40Q25.10 43.50 25.15 43.50Q25.25 43.50 25.40 43.35Q25.55 43.65 25.70 43.65Q25.65 43.65 25.90 43.55Q26 43.60 26.20 43.65Q26.40 43.70 26.60 43.80Q27.15 44.15 27.25 44.15Q27.35 44.15 27.35 44.10Q27.35 44.05 27.45 44.05Q27.50 44.05 27.60 44.15Q27.70 44.25 27.75 44.25L27.85 44.25Q27.80 44.20 27.90 44.20Q28.30 44.20 28.90 44.52Q29.50 44.85 29.45 44.85Q29.50 44.85 29.65 44.70Q29.70 44.75 29.73 44.88Q29.75 45 29.85 45L30.05 45Q30.25 45 30.70 45.20L30.75 45.20Q30.75 45.15 30.85 45.15Q30.90 45.15 31.57 45.50Q32.25 45.85 32.60 45.90Q32.60 45.90 33 46.15Q33.15 46.15 33.38 46.23Q33.60 46.30 33.50 46.30L33.65 46.30Q33.65 46.35 33.60 46.40Q33.95 46.65 34.40 46.90L34.90 47L35.70 47.45Q35.75 47.45 35.70 47.50Q35.65 47.55 35.75 47.55Q35.70 47.55 35.85 47.50Q35.85 47.70 35.95 47.70L36.45 47.70Q36.50 47.75 36.50 47.65Q36.50 47.40 36.30 47.40Q36.30 47.40 36.25 47.42Q36.20 47.45 36.15 47.45Q36.20 47.35 36.20 47.27Q36.20 47.20 36.20 47.20Q35.85 46.70 35.85 46.25Q35.85 46.05 35.95 45.75L35.50 45.45Q35.50 45.30 35.45 45.15L35.35 45.25L35.35 45.05Q35.40 45 35.40 44.85Q35.40 44.60 35.25 44.15Q35.40 44.15 35.50 44.05Q35.25 43.75 35 42.60Q35.10 42.30 35.10 42.15Q35.10 41.85 34.95 41.55Q35.05 41.40 35 41.35L34.95 41.30Q35.20 41.05 34.95 41.05Q35 41 35 40.70Q35.05 40.70 35.10 40.75L35.35 40.55L35.65 42.20Q35.55 42.35 35.65 42.60L36.15 45.05Q36.40 45.20 36.48 45.42Q36.55 45.65 36.75 46.05Q36.75 46.70 38.10 48.60L38.85 48.90Q39.05 49 39.40 49.25Q39.75 49.50 40.30 49.90Q40.35 50.05 40.25 50.25Q40.30 50.55 40.70 51.25Q40.65 51.30 40.60 51.38Q40.55 51.45 40.40 52.35Q40.35 52.40 40.35 52.45Q40.35 52.80 40.58 53.08Q40.80 53.35 41.45 53.75L41.45 54L41.10 54M41.40 20.05Q41.40 20.05 41.40 20.05Q41.40 20.05 41.40 20L41.40 20.05M19.85 43.25Q19.85 43.25 19.80 43.25L19.85 43.25ZM43.60 43.80Q43.60 43.80 43.25 43.60Q43.10 43.60 42.80 43.55Q42.50 43.50 41.90 43.20Q41.80 43.15 41.63 43.08Q41.45 43 41.25 42.85Q41.20 42.60 40.80 42.10L40.70 42.10L40.55 42.20Q40.50 41.95 40.25 41.75Q40.25 41.55 40.05 41.30Q40.15 40.90 40.05 40.40Q39.95 40.10 39.65 39.80L39.80 39.60Q39.90 39.40 40 39.13Q40.10 38.85 40.20 38.50Q40.25 38.30 40.30 38.05Q40.35 37.80 40.45 37.45Q40.40 37.40 39.98 37.05Q39.55 36.70 39.25 36.85Q39.30 36.75 39.30 36.67Q39.30 36.60 39.30 36.60Q39.30 36.55 39.20 36.48Q39.10 36.40 39.10 36.30Q39.10 36.30 39.25 36.13Q39.40 35.95 39.45 35.95Q39.55 35.95 39.78 36.05Q40 36.15 40.10 36.15Q40.15 36.15 40.25 36.10Q40.35 36.05 40.40 36.05L41.25 36.25Q41.35 36.25 41.55 36.15L42.80 34.90Q42.95 34.90 42.98 34.83Q43 34.75 43.50 34.30Q43.55 34.30 43.68 34.25Q43.80 34.20 44.05 33.95L44.20 33.70Q45.65 32.70 46.75 32.70L47.10 32.70Q47 32.80 47.20 32.80Q47.25 32.80 47.35 32.75Q47.45 32.70 47.50 32.70L47.80 32.90L48.10 32.90Q48.30 33.10 48.30 33.10Q48.35 33.10 48.35 33.05L48.40 33.05Q48.30 33.05 48.60 33.35Q48.60 33.35 48.35 34.15Q48.20 34.25 47.93 34.55Q47.65 34.85 47.55 34.85Q47.50 34.85 47.33 34.75Q47.15 34.65 47.05 34.65Q47 34.65 46.75 34.75Q46.50 34.85 46.40 34.95Q46.35 35 46.18 35.08Q46 35.15 45 35.50Q45.05 35.85 44.85 35.90Q44.50 35.95 44.40 36.15L44.40 36.20Q44.65 36.45 45.55 36.45Q45.60 36.45 45.68 36.40Q45.75 36.35 45.85 36.35Q45.90 36.35 45.95 36.40L46.05 36.40Q46.10 36.40 46.20 36.33Q46.30 36.25 46.35 36.25Q46.45 36.25 46.95 36.40Q47.45 36.55 47.50 36.55Q47.70 36.55 47.80 36.30L48 36.45L48.25 36.45Q48.30 36.45 48.45 36.30L48.45 36.20Q48.05 35.95 47.85 35.95L47.85 35.55L48.10 35.45Q48.15 35.45 48.20 35.50L48.30 35.50L48.75 35.35Q48.90 35.65 49.10 35.85Q49.15 35.85 49.15 35.75Q49.30 35.80 49.58 36.02Q49.85 36.25 49.95 36.25Q50 36.25 50.10 36.17Q50.20 36.10 50.30 36.05L50.55 36.05Q51 36.05 51.55 35.85L51.70 35.95Q51.85 35.80 52.05 35.80Q52.15 35.80 52.15 35.85L52.20 35.85L52.75 35.75Q52.85 35.65 53.10 35.60Q53.35 35.55 53.95 35.55Q54 35.55 54 35.50Q54.20 35.40 54.43 35.35Q54.65 35.30 54.95 35.25Q55 35.20 55.18 35.10Q55.35 35 55.80 34.90Q55.90 34.90 56 34.90Q56.10 34.90 56.30 34.85L56.45 34.70Q56.50 34.70 56.50 34.75L56.55 34.75Q56.35 34.75 57.25 34.35Q57.30 34.40 57.30 34.50Q57.30 34.60 57.35 34.75Q57.20 34.75 57.15 34.95Q56.65 35 56.45 35.35L55.70 35.65Q55.60 35.65 55.48 35.65Q55.35 35.65 55.15 35.70L54.70 35.95Q54.65 35.95 54.60 35.90Q54.55 35.85 54.50 35.85Q54.55 35.85 54.23 36Q53.90 36.15 53.65 36.15L53.60 36.15Q53.60 36.10 53.55 36.10L53.40 36.25Q53.20 36.30 52.88 36.30Q52.55 36.30 52.15 36.35Q52.15 36.40 52.10 36.45Q52.20 36.45 52.08 36.48Q51.95 36.50 51.70 36.55Q51.55 36.55 51.30 36.55Q51.05 36.55 50.70 36.60Q50.65 36.60 50.55 36.70L51.20 37.45L51.20 37.60Q51.20 37.60 51.25 37.65Q51.30 37.70 51.55 38.10Q51.70 38.40 51.55 38.45Q51.70 38.95 51.70 38.80Q51.70 38.85 51.65 39.05Q51.60 39.25 51.50 39.60Q51.40 39.75 51.30 39.98Q51.20 40.20 51.10 40.50Q50.95 40.70 50.65 41.02Q50.35 41.35 49.85 41.85Q49.85 41.90 49.63 42.02Q49.40 42.15 49.15 42.50Q48.85 42.65 48.43 42.83Q48 43 47.45 43.25Q47.25 43.30 46.93 43.38Q46.60 43.45 46.20 43.50Q46.05 43.55 45.80 43.65Q45.55 43.75 45.15 43.75Q44.30 43.75 44.15 43.70L43.60 43.80M44.05 43.30Q44.05 43.35 44.08 43.27Q44.10 43.20 44.15 43.20L44.55 43.30Q44.85 43.30 44.93 43.23Q45 43.15 45.15 43.15L45.35 43.15Q45.50 43.20 45.60 43.20Q45.65 43.20 45.75 43.13Q45.85 43.05 45.90 43.05Q46 43.05 46 43.10L46.15 43L46.80 43Q46.80 43 47.13 42.92Q47.45 42.85 47.75 42.65L48.15 42.40Q48.55 42.15 48.85 42.02Q49.15 41.90 49.30 41.80Q50.05 41.25 50.30 40.60Q50.30 40.45 50.38 40.23Q50.45 40 50.45 39.95Q50.45 39.75 50.25 39.55Q50.25 39.45 50.28 39.25Q50.30 39.05 50.35 38.80L50.25 38.70Q50.15 38.30 49.90 37.90Q49.85 37.90 49.80 37.85Q49.75 37.80 49.70 37.40L49.45 37.20L49.45 36.95L48.90 36.95Q48.85 36.95 48.80 36.90Q48.75 36.85 48.70 36.85L48.45 36.85Q47.90 37.10 47.90 37.15L47.95 37.15Q47.95 37.15 47.90 37.15L47.50 37Q47.50 37 47.25 37.10Q47 37.20 46.70 37.20Q46.65 37.20 46.60 37.13Q46.55 37.05 46.45 37.05Q46.40 37.05 46.25 37.17Q46.10 37.30 46.05 37.30Q45.95 37.30 45.93 37.25Q45.90 37.20 45.85 37.20Q45.80 37.20 45.70 37.25Q45.60 37.30 45.55 37.30Q45.55 37.30 45.55 37.30L45.55 37.30Q45.55 37.30 45.20 37.10Q45.20 37.50 44.90 37.50Q44.70 37.50 44.70 37.15Q44.50 37.20 44.38 37.27Q44.25 37.35 44.10 37.35L43.95 37.35L43.80 37.20Q43.75 37.35 43.55 37.35Q43.40 37.35 43.35 37.30L43.35 37.15Q43.30 37.20 43.20 37.25Q43.10 37.30 43 37.35L43 37.40Q43 37.65 42.70 37.85Q42.40 38.05 41.85 38.35Q41.85 38.40 41.88 38.48Q41.90 38.55 41.90 38.60Q41.90 39.10 41.45 39.25L41 40.60Q41.10 40.60 41.10 40.65L41.65 42.30Q41.70 42.30 41.75 42.25L41.90 42.25Q42.05 42.25 42.15 42.58Q42.25 42.90 42.45 42.90Q42.50 42.90 42.50 42.85L42.55 42.85Q42.50 42.85 42.95 43.05Q42.95 43.05 43.25 43.15L43.35 43.05Q44.05 43.20 44.05 43.30ZM48.60 62.60Q48.45 62.60 48.13 62.35Q47.80 62.10 47.65 62.10Q47.50 62.10 47.50 62.15Q47.50 62.20 47.40 62.20Q47.30 62.20 47.15 62Q47 61.80 46.90 61.80Q46.75 61.80 46.73 61.85Q46.70 61.90 46.60 61.90Q46.60 61.90 46.60 61.90L46.60 61.90Q46.70 61.90 46.10 61.55Q45.90 61.50 45.58 61.28Q45.25 61.05 44.60 60.45Q44.70 60.35 44.60 60.25Q44.10 59.80 43.55 59.20Q43.55 59.10 43.55 58.95Q43.55 58.80 43.50 58.60Q43.45 58.55 43.28 58.30Q43.10 58.05 43.10 57.90Q43.10 57.85 43.25 57.52Q43.40 57.20 43.35 56.65Q43.55 56.65 43.65 56.55Q43.65 54.80 45.55 52.15Q45.65 52 45.75 52Q46 52 45.80 52.30Q45.30 53 44.95 53.67Q44.60 54.35 44.40 54.90Q44.15 55.50 44.15 56.55L44.15 56.65Q44.15 57.30 44.40 57.92Q44.65 58.55 45 59.10Q45.90 60.60 47.25 61.05Q48.20 61.40 48.85 61.50L50.85 61.75L50.95 61.75Q51.05 61.75 51.20 61.73Q51.35 61.70 51.90 61.70Q52.15 61.70 53.65 61.20Q54.45 60.95 54.88 60.83Q55.30 60.70 55.35 60.70Q55.45 60.70 55.43 60.75Q55.40 60.80 55.55 60.80Q55.65 60.80 55.95 60.58Q56.25 60.35 56.35 60.30L57.30 60L57.35 59.95Q57.55 59.75 58.05 59.55Q58.15 59.65 58.30 59.55L58.75 59.20Q59.20 59.15 59.45 58.98Q59.70 58.80 59.70 58.80L59.75 58.80L60.10 58.60Q60.15 58.55 60.15 58.50Q60.50 58.35 61 57.95L62.20 57.20L62.40 57.05Q62.45 57.05 62.58 56.95Q62.70 56.85 62.75 56.65L62.95 56.75L63.15 56.45L63.65 56.20Q63.75 56.10 63.80 56.05Q63.85 56 63.90 55.95L64.50 55.20Q64.70 55.10 64.78 55Q64.85 54.90 65.15 54.70Q65.35 54.50 65.55 54.10Q65.75 54.10 66.75 53.10Q67.15 52.70 66.90 52.65Q66.95 52.65 67 52.70L67.15 52.55L67.15 52.30Q66.90 52.25 66.95 52.20Q66.55 52.35 66.18 52.90Q65.80 53.45 65.15 53.90Q65.10 53.90 65.10 54.10L64.90 54.10Q64.90 54.05 65 53.95L65 53.80Q64.95 53.75 64.80 53.75Q64.90 53.55 64.90 53.45Q65.30 52.95 65.80 52.35Q66.30 51.75 66.85 51Q67.45 50.40 67.60 49.90Q67.65 49.85 67.73 49.67Q67.80 49.50 67.90 49.05Q68.10 48.80 68.33 48.45Q68.55 48.10 68.40 47.90Q68.50 47.80 68.60 47.15Q68.75 47.10 68.90 46.75Q68.95 46.40 68.98 46.13Q69 45.85 69 45.65Q69 45.65 69 45.60Q69 45.55 68.95 45.50L69 45.30L68.80 44.50Q68.55 43.45 67.70 42.85Q67.65 42.75 67.53 42.60Q67.40 42.45 67.25 42.35Q66.30 41.90 65.85 41.90Q65.80 41.90 65.75 41.95Q65.70 42 65.65 42Q65.60 42 65.45 41.90Q65.30 41.80 65.25 41.80Q65.05 41.80 64.30 41.98Q63.55 42.15 63.35 42.15L63.30 42.15Q63.30 42.10 63.20 42.10Q63.20 42.10 63.08 42.15Q62.95 42.20 62.70 42.25Q62.45 42.45 62.35 42.45Q62.30 42.45 62.20 42.40Q62.10 42.35 62.05 42.35Q62 42.35 61.88 42.45Q61.75 42.55 61.65 42.55Q61.60 42.55 61.60 42.50L61.55 42.50Q61.65 42.50 60.55 43.05Q60.35 43.10 60.18 43.25Q60 43.40 59.90 43.40Q59.85 43.40 59.85 43.35Q59.85 43.30 59.75 43.30Q59.45 43.30 59.20 43.70Q58.90 43.75 58.60 43.88Q58.30 44 57.95 44.20Q57.85 44.20 57.70 44.25Q57.35 44.30 57.05 44.70Q56.95 44.60 56.80 44.70Q56.70 44.75 56.55 44.83Q56.40 44.90 56.10 44.95Q56.05 45 55.88 45.08Q55.70 45.15 55.35 45.15L55.25 45.15Q55.25 45.10 55.15 45.10Q55 45.10 54.80 45.30Q54.35 45 54.30 45Q54.25 45 54.25 45.05L54.15 45.05Q54.05 45.05 54 45Q53.95 44.70 53.35 44.30L53.35 43.85Q53.35 43 53.70 42.45Q53.90 42.35 54.05 42.20Q54.20 42.05 54.65 41.75Q54.65 41.70 55.10 41.40Q55.55 41.10 55.55 41Q56.20 40.65 57.15 40.40Q57.50 40.35 58.25 39.75Q58.15 39.65 57.65 39.40L57.65 39.35Q57.65 39.25 57.60 39.08Q57.55 38.90 57.45 38.70L57.35 38.05Q57.45 37.95 57.45 37.85Q57.35 37.55 57.35 37.55L57.35 37.05L57.65 36.55L57.65 36.25Q57.90 36.10 58.10 35.45Q58.30 35.40 58.55 34.90L58.70 34.60Q58.85 34.50 59.08 34.27Q59.30 34.05 59.60 33.75Q59.55 33.75 59.05 33.40Q58.55 33.05 58.45 33.05Q58.35 33.10 58.30 33.10Q58.20 32.95 58.08 32.80Q57.95 32.65 57.75 32.50Q57.75 32.45 57.80 32.38Q57.85 32.30 57.85 32.25Q57.85 32.20 57.75 32.08Q57.65 31.95 57.65 31.85Q57.65 31.80 57.80 31.52Q57.95 31.25 58 31.25Q58.45 31.25 58.45 31.85Q58.60 31.85 58.75 31.90Q59.15 32.45 59.30 32.45Q59.35 32.45 59.40 32.40L59.45 32.40Q59.50 32.40 59.70 32.48Q59.90 32.55 60.20 32.55Q60.25 32.75 60.40 32.75Q60.45 32.75 60.55 32.70Q60.65 32.65 60.70 32.65Q60.75 32.65 60.80 32.70Q60.85 32.75 60.95 32.75Q61.05 32.75 61.20 32.55L61.70 32.25L61.95 32.40Q62.25 32.40 62.45 32.10Q62.70 32.40 62.88 32.50Q63.05 32.60 63.25 32.70L63.25 32.75L63.60 33.15Q63.95 33.20 64.38 33.20Q64.80 33.20 65.30 33.20Q65.50 33.15 65.60 33.15Q65.70 33.15 65.70 33.15Q65.70 33.15 65.85 33.25Q65.95 33.35 66.25 33.25Q66.45 33.20 66.60 33.20L66.80 33.30L67.10 33.30Q67.25 33.25 67.40 33.25L68.10 33.05Q68.15 33.10 68.25 33.10Q68.30 33.05 68.40 33.05Q68.50 33.05 68.60 33L68.95 33L69.85 33.05Q69.90 33.25 69.85 33.40Q69.80 33.45 69.70 33.45Q69.60 33.45 69.50 33.50Q69.35 33.50 69.25 33.48Q69.15 33.45 69.05 33.45Q68.80 33.45 68.45 33.65Q68.05 33.90 68 33.90Q68 33.90 67.60 33.80Q67.55 33.80 67.40 33.88Q67.25 33.95 66.90 34.05Q66.80 33.95 66.65 33.90Q66.55 34.15 65.30 34.30Q65.55 34.70 65.53 34.70Q65.50 34.70 65.90 35.35Q66 35.70 65.90 36.40Q65.75 36.55 65.45 36.90Q65.15 37.25 64.60 37.65L64.50 37.85Q63.65 38.40 63.60 38.40L63.55 38.40Q63.55 38.35 63.50 38.35Q63.50 38.35 63.25 38.48Q63 38.60 62.70 38.90Q62.20 38.90 62.08 39.08Q61.95 39.25 61.60 39.50Q61.50 39.50 61.35 39.52Q61.20 39.55 61 39.60L60.70 39.80L60.25 39.80L60.05 39.95Q60 39.95 59.95 39.90Q59.90 39.85 59.85 39.85Q59.80 39.85 59.78 39.92Q59.75 40 59.65 40L59.60 40Q59.55 39.95 59.50 39.95Q59.30 39.95 59.20 40.05Q58.65 40.25 58.08 40.52Q57.50 40.80 56.95 41.05L56.50 41.25L55.25 42.10Q55.15 42.20 54.98 42.40Q54.80 42.60 54.60 42.85Q54.60 43 54.40 43.35Q54.35 43.60 54.33 43.67Q54.30 43.75 54.30 43.70Q54.30 43.95 54.70 44.35Q54.80 44.35 54.95 44.40Q55.10 44.45 55.15 44.45Q55.30 44.45 55.30 44.35Q55.30 44.40 55.30 44.35L55.30 44.35Q55.35 44.40 56.20 44.40Q56.35 44.40 56.98 44.08Q57.60 43.75 57.95 43.70Q58.15 43.35 58.45 43.35Q58.50 43.35 58.50 43.40L58.55 43.40Q58.50 43.40 58.85 43.20L59.55 42.95Q59.65 42.90 59.80 42.77Q59.95 42.65 60 42.65L60.05 42.65Q60.05 42.70 60.10 42.70Q60.20 42.70 60.23 42.63Q60.25 42.55 60.30 42.55L60.35 42.55Q60.35 42.60 60.40 42.60Q60.45 42.60 60.60 42.48Q60.75 42.35 60.80 42.35Q61.20 42.25 61.45 42.10L61.65 41.95Q62.35 41.90 62.75 41.55Q63 41.40 63.38 41.27Q63.75 41.15 64.55 41.05L64.65 40.95L64.75 40.95Q64.80 41 64.85 41Q64.90 41 65.03 40.92Q65.15 40.85 65.25 40.85Q65.25 40.85 65.25 40.85L65.25 40.85Q65.10 40.85 65.35 40.95Q65.40 40.75 65.70 40.75Q65.75 40.75 65.80 40.80Q65.85 40.85 65.90 40.85Q66 40.85 66.03 40.80Q66.05 40.75 66.15 40.75Q66.20 40.75 66.20 40.80Q66.20 40.85 66.30 40.85Q66.35 40.85 66.38 40.80Q66.40 40.75 66.45 40.75Q66.55 40.75 66.60 40.80Q66.65 40.85 66.70 40.85Q66.75 40.85 66.83 40.80Q66.90 40.75 66.95 40.75Q66.95 40.75 66.95 40.75L66.95 40.75Q66.95 40.75 67.45 40.95Q67.60 40.95 67.60 40.85Q68.10 41 68.15 41.05L68.15 41.05L68.25 41.05Q68.35 41.05 68.55 41.35L69.05 41.50Q69.15 41.75 69.35 41.90Q69.50 41.85 69.58 41.83Q69.65 41.80 69.65 41.80Q69.65 42.10 69.70 42.15Q69.70 42.05 69.85 42.05L69.85 42.20Q69.95 42.25 70.10 42.42Q70.25 42.60 70.30 42.60Q70.40 42.55 70.45 42.55Q70.55 42.85 70.75 43.15Q70.75 43.35 70.88 43.55Q71 43.75 71.05 43.85Q71.15 44.10 71.23 44.52Q71.30 44.95 71.40 46.45Q71.40 46.45 71.45 46.52Q71.50 46.60 71.50 46.65L71.30 47.15Q71.15 47.55 71.40 47.70L71 48.40Q70.95 48.45 71.10 48.60L70.80 48.95Q70.80 49.10 70.75 49.20L70.15 50.15L69.85 50.80Q69.75 51 69.28 51.70Q68.80 52.40 67.95 53.55L67.70 53.70Q67.50 54.05 66.98 54.50Q66.45 54.95 65.60 55.75L65.05 56.10Q65 56.10 64.95 56.30Q64.80 56.25 64.65 56.55Q64.45 56.55 64.15 56.85Q63.95 57.10 63.50 57.45Q63.05 57.80 62.35 58.30Q61.80 58.65 60.95 59.17Q60.10 59.70 58.95 60.35Q58.40 60.60 57.08 60.98Q55.75 61.35 53.70 61.90L53.45 62.10Q53.20 62.15 52.83 62.20Q52.45 62.25 51.90 62.35L50.70 62.60Q50.60 62.60 50.18 62.50Q49.75 62.40 49.65 62.40Q49.50 62.40 49.38 62.35Q49.25 62.30 49.15 62.30L48.95 62.10L48.60 62.60M70.40 33.45Q70.20 33.10 70.35 33.10Q70.65 33.10 70.80 33.15Q70.90 33.15 70.90 33L71.15 33Q71.20 32.95 71.25 32.90Q71.30 32.85 71.35 32.80Q71.55 32.80 72.50 32.25Q72.70 32.20 72.88 32.20Q73.05 32.20 73.15 32.20Q73.65 32.20 73.80 32.35L73.80 32.40Q73.80 32.55 73.35 32.67Q72.90 32.80 72.80 32.90Q72.75 32.95 72.40 33.05L72 33.15Q71.45 33.55 70.85 33.45Q70.65 33.35 70.40 33.45M61.10 38.50Q61.20 38.35 61.35 38.35Q61.40 38.35 61.45 38.40L61.55 38.40Q61.60 38.40 61.73 38.33Q61.85 38.25 61.90 38.25Q62 38.25 62 38.30L62.05 38.30Q62.35 38.30 63 37.90Q64 37.20 64.05 37.20L64.20 37.20Q64.25 37.05 64.55 36.73Q64.85 36.40 64.85 36.10Q64.85 35.75 64.45 35.10Q64.40 35.10 64.20 35Q64.20 35.05 64.18 34.95Q64.15 34.85 64.10 34.65L63.80 34.40Q63.70 34.40 63.55 34.40Q63.40 34.40 63.25 34.35Q63.05 33.90 63.10 33.85L63.35 33.60Q62.70 33.70 62.60 33.90Q62.50 34.10 62.35 34.25L61.95 34.35L61.05 35.05Q60.80 35.50 60.25 35.75Q60.15 35.90 60.03 36.13Q59.90 36.35 59.75 36.60Q59.80 36.80 59.65 37.05L59.65 37.60Q59.95 37.70 59.90 38Q60.15 38 60.20 38.05L60.20 38.20L60.35 38.20Q60.80 38.20 61.10 38.50M68.05 41.10Q68.10 41.10 68.10 41.10L68.05 41.10ZM73.00 43.95Q72.85 43.95 72.75 43.70Q72.70 43.75 72.70 43.80L72.40 43.80L72.25 43.50Q72.20 43.55 72.20 43.60Q72.15 43.60 72.05 43.50L71.90 43.60Q71.65 43.35 71.38 42.92Q71.10 42.50 71.05 42.05Q71.00 42 70.85 42L70.85 41.60Q71.05 41.55 71.10 40.80L71.25 40.60L71.25 40.35L71.15 40.25L71.35 40.10L71.90 38.55L72.40 38L72.40 37.85Q73.00 37.45 73.15 37Q73.35 37 73.35 36.80Q74.00 36.60 73.85 36.15Q73.95 36.10 73.98 36.10Q74.00 36.10 74.00 36.10Q74.05 36.10 74.20 36.17Q74.35 36.25 74.40 36.25Q74.50 36.25 74.58 36.20Q74.65 36.15 74.70 36.15Q74.90 36.35 74.95 36.35Q75.20 36.35 75.45 36.15Q75.45 36.20 75.50 36.30Q75.55 36.40 75.55 36.45Q75.55 36.70 75.35 36.90L75.50 37.10Q75.50 37.45 74.90 38.20Q74.30 38.85 74.05 38.95Q74.00 39 73.95 39.13Q73.90 39.25 73.80 39.35L73.70 39.35L73.60 39.25L73.10 39.90Q73.10 40.10 72.70 40.65Q72.55 40.70 72.48 40.67Q72.40 40.65 72.40 40.70L72.40 41.05Q72.65 41.50 72.60 41.65Q72.45 41.95 72.45 42Q72.45 41.95 72.75 42.40Q72.70 42.45 72.70 42.75Q73.10 42.80 73.75 43.20L73.95 43.20Q74.15 43.20 74.23 43.13Q74.30 43.05 74.30 43.05Q74.35 43.05 74.35 43.10L74.40 43.10Q74.45 43.10 74.65 42.90Q74.85 42.70 74.90 42.70Q74.95 42.70 74.95 42.75Q74.95 42.80 75.00 42.80Q75.05 42.80 75.20 42.75Q75.35 42.70 75.45 42.70L75.45 42.55Q75.40 42.50 75.45 42.50L75.45 42.55Q75.50 42.60 75.80 42.70L75.75 42.50Q75.90 42.45 76.00 42.20Q76.25 42.20 76.48 42.13Q76.70 42.05 76.70 41.90L77.10 41.90Q77.10 42 77.20 42Q77.70 42 77.75 41.35L78.05 41.05Q78.05 41.05 78.15 41.15Q78.35 40.95 78.50 40.95Q78.55 40.95 78.58 41Q78.60 41.05 78.70 41.05Q78.85 41.05 79.00 40.90Q79.15 40.75 79.15 40.70Q79.25 40.60 79.40 40.50Q79.55 40.40 79.65 40.20L79.95 40.35Q79.90 40.30 81.00 39.45Q81.50 39.25 81.50 39.15Q81.70 39.15 81.90 39L81.90 38.85L82.60 38.50L82.60 38.80L82.35 38.80Q82.30 38.85 82.30 39.10L81.15 40Q81.05 40 81.10 39.95L81.05 39.95Q81.10 39.95 80.60 40.45Q80.50 40.55 80.20 40.55Q79.55 41.15 79.70 41.10Q79.70 41.10 79.70 41.10L79.70 41.10Q79.65 41.05 79.60 41.05Q79.55 41.10 79.55 41.25L79.50 41.25Q79.30 41.25 78.90 41.65Q78.85 41.65 78.75 41.65Q78.65 41.65 78.55 41.70Q78.35 41.85 78.08 42.08Q77.80 42.30 77.45 42.60L77.15 42.60Q76.80 42.90 76.65 42.90L76.50 42.90Q76.45 42.85 76.40 42.85Q76.35 42.85 76.03 43.05Q75.70 43.25 75.60 43.25L75.55 43.25Q75.55 43.20 75.50 43.20Q75.45 43.20 75.13 43.38Q74.80 43.55 74.75 43.55L74.70 43.55Q74.70 43.50 74.60 43.50Q74.55 43.50 74.48 43.55Q74.40 43.60 74.20 43.65Q73.70 43.90 73.90 43.90Q73.85 43.90 73.60 43.85Q73.35 43.80 73.25 43.80L73.00 43.95M83.00 38.40Q82.95 38.40 82.93 38.33Q82.90 38.25 82.85 38.25L83.55 37.50Q83.75 37.50 83.75 37.60Q83.75 37.80 83.43 38.08Q83.10 38.35 83.00 38.40M76.45 34.40Q76.05 34.40 75.35 33.85Q74.75 33.25 74.75 32.90Q75.35 32.65 76.08 32.33Q76.80 32 77.60 31.60L77.65 31.60Q77.45 32.15 77.10 32.50L77.20 32.85L77.20 33.15L76.95 33.45Q76.95 34.40 76.45 34.40ZM81.55 44.35Q81.50 44.30 81.50 44.20Q81.50 44 81.65 43.80Q81.80 43.60 81.80 43.60L81.85 42.70Q81.95 42.55 82.25 42.30Q82.25 42.15 82.35 41.85Q82.30 41.90 82.30 41.40Q82.40 41.30 82.45 41.20Q82.40 41.15 82.40 40.30Q82.40 40.35 82.55 40.05Q82.50 39.85 82.55 39.55Q82.65 39.35 82.70 39.13Q82.75 38.90 82.70 38.70L82.60 37.60Q82.55 36.90 82.60 36.85Q82.50 36.60 82.65 36.40Q82.50 35.55 81.55 34.90L81.55 34.65Q81.60 34.65 81.70 34.60Q81.80 34.55 81.85 34.55Q81.90 34.55 82.08 34.65Q82.25 34.75 82.30 34.75L82.95 34.75Q82.90 34.80 83.28 35.27Q83.65 35.75 83.80 36.30Q83.80 36.45 83.88 36.65Q83.95 36.85 84.10 36.90Q84.25 37.35 84.25 37.85Q84.25 38.05 84.23 38.27Q84.20 38.50 84.15 38.75L84.30 38.90Q84.45 39.25 84.45 39.65L84.60 39.70L85.65 38.15Q85.65 38.10 85.95 37.90Q86.05 37.70 86.25 37.50Q86.50 37.50 86.50 37.33Q86.50 37.15 87.00 36.75Q87.15 36.05 87.80 36L87.80 35.95Q87.80 35.65 88.05 35.63Q88.30 35.60 88.35 35.25L88.80 34.95Q88.85 34.85 88.90 34.75Q88.95 34.65 89.05 34.50Q89.10 34.45 89.45 34.35Q90.35 33.75 90.38 33.70Q90.40 33.65 90.55 33.55Q90.65 33.50 90.75 33.45Q90.85 33.40 91.00 33.35Q91.00 33.35 91.10 33.17Q91.20 33 91.30 33Q91.35 33 91.35 33.05L91.40 33.05Q91.30 33.05 91.95 32.70Q92.10 32.60 92.28 32.55Q92.45 32.50 92.65 32.45Q92.95 31.95 93.50 31.95Q93.55 31.95 93.58 32Q93.60 32.05 93.70 32.05Q93.75 32.05 93.83 32Q93.90 31.95 93.95 31.95Q94.45 31.95 94.70 32.50Q95.10 33.40 95.10 34.40L95.10 35.70Q95.10 35.75 95.20 35.85Q95.20 35.95 95.15 36.05L95.40 37.75L95.70 39.30Q95.80 39.50 95.95 39.73Q96.10 39.95 96.20 40.25L96.35 40.35Q96.60 40.45 96.60 40.85L97.20 41.10Q97.45 41.35 97.40 41.30L98.00 41Q98.10 41.05 98.15 41.08Q98.20 41.10 98.20 41.10Q98.30 41.10 98.63 40.75Q98.95 40.40 99.00 40.25Q99.10 40.25 99.15 40.30Q99.20 40.40 99.23 40.45Q99.25 40.50 99.25 40.50Q99.25 40.65 98.25 41.65Q98.20 41.65 98.15 41.73Q98.10 41.80 98.05 41.80Q97.95 41.80 98.00 41.75L97.95 41.75Q97.85 41.75 97.75 42.05L97.10 42.50L97.10 42.70Q96.55 42.90 96.30 43Q96.05 43.10 96.10 43.10Q95.90 43.10 95.85 43Q95.80 42.90 95.75 42.90L95.70 42.90Q95.70 42.95 95.65 42.95Q95.35 42.95 95.25 42.65L95.20 42.70Q95.00 42.70 94.70 42.33Q94.40 41.95 94.30 41.85L94.40 41.75Q94.40 41.65 94.20 41.60Q94.05 41 93.95 41.10Q93.85 41.20 93.80 40.55Q93.85 40.45 93.85 40.27Q93.85 40.10 93.90 39.90Q93.65 39.45 93.35 39.60Q93.35 39.50 93.25 39.20Q93.30 39.10 93.30 39.08Q93.30 39.05 93.30 39.05Q93.15 38.80 93.25 38.40L93.35 37.95L93.20 37.75L93.20 37.30Q93.00 37.20 92.90 37.08Q92.80 36.95 92.70 36.90L92.70 36.05Q92.80 35.80 92.85 35.75L92.60 35.40L92.60 35.30Q92.60 35.15 92.50 34.92Q92.40 34.70 92.25 34.35Q91.95 34.05 91.65 34.05Q91.60 34.05 91.58 34.10Q91.55 34.15 91.45 34.15Q91.45 34.15 91.45 34.15L91.45 34.15Q91.55 34.15 91.30 34.05Q91.20 34.15 91.20 34.25Q90.85 34.25 90.70 34.40Q90.55 34.55 90.55 34.55Q90.50 34.55 90.50 34.50Q90.55 34.45 90.50 34.45Q90.50 34.45 89.80 35.05Q89.70 35.05 89.65 35.10Q89.40 35.25 89.40 35.40Q88.75 35.60 87.90 36.75Q87.85 36.75 87.65 36.85Q87.30 37.25 86.75 37.83Q86.20 38.40 85.50 39.15Q85.35 39.30 85.25 39.45Q85.15 39.60 84.70 40.20Q84.65 40.25 84.55 40.35Q84.45 40.45 84.35 40.55Q84.35 40.70 84.18 41.02Q84.00 41.35 84.00 41.90Q84.00 42 83.75 42.35Q83.50 42.70 83.50 42.90Q83.50 43 83.55 43.05Q83.40 43.10 83.13 43.25Q82.85 43.40 82.80 43.40Q82.75 43.40 82.73 43.35Q82.70 43.30 82.65 43.30Q82.55 43.30 82.35 43.50L82.35 43.60Q82.35 43.75 82.20 44.05Q81.85 44.05 81.85 44.35Q81.65 44.40 81.55 44.35Z"/></g></g></svg>