<svg xmlns="http://www.w3.org/2000/svg" viewBox="0.037500008940696716 10.699999809265137 119.86250305175781 47.599998474121094" data-asc="0.85"><g fill="#262626"><g fill="#262626" transform="translate(0, 0)"><path d="M5.65 46.35Q4.25 45.90 3.15 45.15Q2.05 44.40 1.40 43.70Q0.75 43 0.70 42.80L0.45 41.85Q0.30 41.45 0.15 41.08Q0 40.70 0.05 40.20Q0.35 38.30 1.53 36.73Q2.70 35.15 3.85 33.60Q4.95 32.20 6.63 31.20Q8.30 30.20 9.70 29.10Q10.20 28.70 10.63 28.32Q11.05 27.95 11.60 27.75L12.10 27.55L12.15 27.60Q11.80 28 11.38 28.30Q10.95 28.60 10.55 28.90L10.20 29.30L9.50 29.75L8.85 30.45Q8.40 30.95 7.97 31.40Q7.55 31.85 7.15 32.35L6.70 32.90Q6.20 33.50 5.83 34.15Q5.45 34.80 5.05 35.45Q4.85 35.90 4.55 36.30Q4.25 36.70 4.05 37.15L3.15 39.35L2.60 40.45Q2.55 40.70 2.53 41.02Q2.50 41.35 2.50 41.65Q2.50 42.30 2.70 42.85Q2.90 43.40 3.55 43.45Q3.75 43.55 4 43.58Q4.25 43.60 4.50 43.60Q4.90 43.60 5.20 43.58Q5.50 43.55 5.70 43.55Q5.70 43.55 6.35 43.40Q7 43.25 7.85 43.02Q8.70 42.80 9.20 42.60Q9.30 42.40 10.10 41.98Q10.90 41.55 11.15 41.35Q11.95 40.85 12.72 40.35Q13.50 39.85 14.20 39.25Q14.35 39.15 14.50 38.95Q14.65 38.75 14.85 38.65L15.95 37.95Q16 37.95 16.78 37.48Q17.55 37 18.53 36.13Q19.50 35.25 20.23 34Q20.95 32.75 20.95 31.20Q20.95 30.25 20.60 29.25Q18.20 26.10 17.00 24.50Q15.80 22.90 15.80 21.80Q15.80 21.40 16.05 20.90Q16.55 19.90 16.68 19.42Q16.80 18.95 17.60 18.25Q17.85 18.10 18.08 17.50Q18.30 16.90 18.50 16.75Q19.35 16.05 19.73 15.55Q20.10 15.05 20.90 14.40Q21.45 13.95 22.15 13.65Q22.85 13.35 23.45 13Q24.15 12.60 24.35 12.30Q24.55 12 25.35 11.70Q25.80 11.50 26.63 11.27Q27.45 11.05 28.30 10.88Q29.15 10.70 29.60 10.70Q30.20 10.70 30.98 11Q31.75 11.30 32.25 11.70Q33.05 12.35 33.75 13.38Q34.45 14.40 34.45 15.10Q34.45 15.55 34.18 15.88Q33.90 16.20 33.55 16.45Q33.15 16.80 32.83 17.15Q32.50 17.50 32 17.75Q31.85 18.15 31.23 18.57Q30.60 19 30.10 19.05L30.10 19.10Q29.90 19.30 29.55 19.65Q29.20 20 28.90 20.10Q28.85 20.10 28.83 20.13Q28.80 20.15 28.75 20.15L28.55 20.45L28.65 20.45Q28.65 20.50 28.35 20.60Q28.05 20.70 27.90 20.70Q27.70 21.20 27.33 21.22Q26.95 21.25 26.55 21.50Q26.50 21.55 26.33 21.67Q26.15 21.80 26.05 21.80L26.00 21.80L26.00 21.70Q26.85 21.05 27.63 20.30Q28.40 19.55 29.20 18.90Q29.60 18.55 30.48 17.72Q31.35 16.90 32.08 15.95Q32.80 15 32.80 14.40Q32.80 13.90 32.23 13.57Q31.65 13.25 31.20 13.25Q30.05 13.25 29.45 13.60Q28.85 13.95 28.50 13.95Q28.40 14.15 27.60 14.57Q26.80 15 26.55 15.20Q25.75 15.70 25.00 16.22Q24.25 16.75 23.55 17.30Q23.35 17.45 23.20 17.63Q23.05 17.80 22.85 17.90Q22.70 18 22.23 18.57Q21.75 19.15 21.18 19.90Q20.60 20.65 20.18 21.27Q19.75 21.90 19.65 22.05Q19.15 23 19.15 23.90Q19.15 25.10 19.83 26.22Q20.50 27.35 21.33 28.45Q22.15 29.55 22.65 30.75L22.95 31.80Q23.05 32.30 23.08 32.63Q23.10 32.95 23.10 33.35Q23.10 33.55 23.10 33.75Q23.10 33.95 23.05 34.20Q23.00 34.50 22.85 35.10Q22.70 35.70 22.70 35.95Q22.60 36.25 22.25 36.98Q21.90 37.70 21.35 38.30Q21.20 38.45 21.10 38.45Q20.95 38.45 20.88 38.23Q20.80 38 20.73 37.88Q20.65 37.75 20.45 38.05Q20.10 38.55 20.00 38.65Q19.90 38.75 19.85 38.77Q19.80 38.80 19.60 39.10Q19.40 39.40 18.85 40.30Q18.45 40.35 18.35 40.67Q18.25 41 18.00 41.25Q17.30 41.80 17.08 41.85Q16.85 41.90 16.63 41.92Q16.40 41.95 15.70 42.50Q15.15 42.90 14.45 43.20Q13.75 43.50 13.15 43.85Q12.50 44.30 11.72 44.63Q10.95 44.95 10.15 45.25Q9.60 45.60 8.28 46Q6.95 46.40 6.10 46.40Q5.75 46.40 5.65 46.35ZM37.10 25Q37.10 25 36.55 24.90Q36 24.80 35.40 24.45Q35.25 24.30 34.93 24.10Q34.60 23.90 34.80 23.65Q34.90 23.50 35.05 23.50Q35.20 23.30 35.38 23.15Q35.55 23 35.65 22.80Q36.60 21.60 37.68 20.57Q38.75 19.55 39.90 18.60Q40.30 18.25 40.65 17.90Q41 17.55 41.45 17.35Q42 17.10 42.15 17.25Q42.30 17.40 42.30 17.40Q42.30 17.45 42.25 17.45Q42.15 17.75 42.05 17.95Q41.85 18.20 41.55 18.42Q41.25 18.65 41.15 18.95Q41.15 19.10 41.10 19.10Q40.90 19.30 40.38 19.80Q39.85 20.30 39.85 20.55Q39.70 20.55 39.70 20.60L39.65 20.60Q39.60 20.95 39.35 21.15Q39.10 21.35 38.85 21.60Q38.65 21.80 38.55 22.07Q38.45 22.35 38.30 22.60Q38.15 22.80 37.98 22.92Q37.80 23.05 37.70 23.25Q37.50 23.60 37.60 24.02Q37.70 24.45 37.60 24.85Q37.55 25 37.33 25.02Q37.10 25.05 37.10 25M23.65 43.55Q22.35 43.05 22.50 41.55L22.70 41.15Q22.95 40.75 23.10 40.35Q23.25 39.95 23.45 39.60Q24.50 37.80 25.58 36.02Q26.65 34.25 27.85 32.55Q27.90 32.50 27.93 32.42Q27.95 32.35 28 32.35L28 32.25Q28.25 32.05 28.70 31.38Q29.15 30.70 29.68 29.92Q30.20 29.15 30.55 28.75Q30.20 29 29.83 29.30Q29.45 29.60 29.15 30Q29 30.20 28.43 30.82Q27.85 31.45 27.15 32.23Q26.45 33 25.90 33.63Q25.35 34.25 25.20 34.45Q24.60 35.10 24.35 35.10Q24.25 35.10 24.25 35Q24.25 34.80 24.60 34.35L26.20 32.55Q26.55 32.15 26.88 31.82Q27.20 31.50 27.50 31.15Q27.75 30.90 27.98 30.60Q28.20 30.30 28.45 30.05L29.25 29.20Q29.50 28.95 29.73 28.63Q29.95 28.30 30.20 28.05Q31.70 26.50 32.30 26.10Q32.90 25.70 33.25 25.95Q33.35 25.85 33.50 25.85Q33.65 25.85 33.80 25.93Q33.95 26 34.05 26.05Q34.25 26.15 34.65 26.43Q35.05 26.70 35.30 27.02Q35.55 27.35 35.25 27.65Q34.95 28 34.55 28.15Q34.15 28.30 33.80 28.65Q33.55 28.85 33.28 29.10Q33 29.35 32.85 29.65L32.80 29.70Q32.85 30.25 32.10 30.82Q31.35 31.40 30.95 31.80Q30.80 31.95 30.70 32.30L30.65 32.30L30.40 32.35Q30.30 32.70 29.98 32.92Q29.65 33.15 29.65 33.55Q29.35 33.65 29.13 34.20Q28.90 34.75 28.65 34.75L28.65 34.90Q28.65 35.15 28.35 35.48Q28.05 35.80 27.85 35.80Q27.85 35.85 27.85 35.95Q27.85 36.05 27.80 36.05Q27.60 36.20 27.60 36.60L27.45 36.60L27.45 36.65L27.55 36.90L27.25 36.95Q27.20 37.15 26.90 37.63Q26.60 38.10 26.35 38.10L26.35 38.15L26.30 38.15L26.55 38.40L26.50 38.40L26.50 38.45L26.45 38.45Q26.25 38.35 26.15 38.35L26.15 38.40Q26.25 38.60 26.25 38.70Q26.25 39 25.90 39Q25.90 39.05 25.90 39.05L26 39.15L26 39.20Q25.65 39.25 25.65 39.75L25.55 39.75L25.45 39.70Q25.35 40.05 25.23 40.42Q25.10 40.80 24.95 41.15Q24.90 41.40 24.78 41.63Q24.65 41.85 24.65 42.15L24.70 42.15L24.70 42.10Q25.25 41.70 26 41.27Q26.75 40.85 27.25 40.35L31.15 36.65L32.65 35.20Q32.75 35.10 33.05 34.85Q33.35 34.60 33.55 34.50Q33.65 34.45 33.85 34.52Q34.05 34.60 33.95 34.70L32.55 35.90Q31.90 36.40 31.65 36.90Q31.40 37.40 30.75 37.95Q30.30 38.35 29.90 38.80Q29.50 39.25 29.05 39.65L27.70 40.85Q27.25 41.25 26.83 41.75Q26.40 42.25 25.90 42.65L25.25 43.20Q25.05 43.35 24.73 43.50Q24.40 43.65 24.10 43.65Q23.95 43.65 23.65 43.55M34.15 34.30Q34.05 34.30 34.05 34.10Q34.05 33.90 34.15 33.90Q34.25 33.90 34.38 33.83Q34.50 33.75 34.55 33.75Q34.60 33.75 34.60 33.80Q34.60 33.90 34.43 34.10Q34.25 34.30 34.15 34.30ZM16.15 58.30L14.95 58.10L14.75 58.10Q14.65 58.20 14.20 58.20Q13.70 58.20 13.05 58.08Q12.40 57.95 12.15 57.90L11.60 57.80L10.95 57.65Q10 57.45 9 56.90Q8.80 56.80 8.57 56.70Q8.35 56.60 8.10 56.50Q7.90 56.25 7.30 55.75Q6.70 55.25 6.60 55.05L6.75 54.90L7 55.20Q7.35 55.45 7.67 55.75Q8 56.05 8.35 56.30Q9.20 56.80 10.15 56.80Q11.10 56.80 12 56.85Q12.25 56.85 12.50 56.90Q12.75 56.95 12.95 56.95L13.90 56.75L14.10 56.85Q14.15 56.75 14.38 56.75Q14.60 56.75 14.80 56.75Q15.35 56.75 15.30 56.65Q15.45 56.65 15.55 56.75Q16.15 56.50 16.92 56.38Q17.70 56.25 18.35 56.05Q18.70 55.95 19.02 55.77Q19.35 55.60 19.75 55.65Q20.05 55.25 20.82 55.13Q21.60 55 22.10 54.80Q23.70 54 25.25 53.17Q26.80 52.35 28.35 51.50Q28.60 51.30 28.80 51.13Q29 50.95 29.20 50.80Q29.65 50.45 30.20 50.17Q30.75 49.90 31.20 49.55L31.85 48.80Q31.95 48.70 32.05 48.73Q32.15 48.75 32.20 48.70L32.60 48.20L32.65 48.05L32.95 48.15L33.60 47.45L33.80 46.95Q34.10 46.55 34.42 46.17Q34.75 45.80 35 45.45Q35.15 45.25 35.40 45.08Q35.65 44.90 35.65 44.65L35.65 44.60L35.70 44.60Q35.75 44.65 35.83 44.70Q35.90 44.75 35.90 44.70Q36.10 44.20 36.38 43.77Q36.65 43.35 37 43L37.20 42.65Q37.30 42.50 37.52 42.40Q37.75 42.30 37.80 42.15L37.90 41.80L38.50 41.05L38.75 40.50L39.30 39.95L40.30 38.25Q40.40 38 40.58 37.80Q40.75 37.60 40.90 37.40Q41.15 37.05 41.33 36.67Q41.50 36.30 41.70 35.95L42.10 35.50L42.45 34.80L42.75 34.45L42.95 33.90Q43.10 33.50 43.45 32.95Q43.50 32.85 43.73 32.48Q43.95 32.10 44.15 31.73Q44.35 31.35 44.30 31.30L44.25 31.30L44.25 31.35Q44.05 31.50 43.92 31.73Q43.80 31.95 43.65 32.15L43.45 32.30Q42.95 32.95 42.60 33.40Q42.25 33.85 42.30 33.80Q42.20 33.95 41.65 34.48Q41.10 35 41 35.10Q40.55 35.70 39.92 36.40Q39.30 37.10 38.90 37.70Q38.15 38.65 37.33 39.58Q36.50 40.50 35.65 41.30Q35.25 41.60 34.88 41.90Q34.50 42.20 34.05 42.45Q33.65 42.65 33.15 42.95Q32.65 43.25 32.20 43.25Q31.75 43.25 31.27 42.85Q30.80 42.45 30.60 41.95Q30.45 41.70 30.35 41.40Q30.25 41.10 30.25 40.75Q30.25 40.10 30.52 39.55Q30.80 39 31.05 38.50Q32.35 36.25 34.15 34.35Q34.30 34.15 34.73 33.67Q35.15 33.20 35.55 32.77Q35.95 32.35 36.10 32.35Q36.10 32.25 36.10 32.25Q36.30 32.10 36.65 31.75Q37 31.40 37.20 31.40Q37.25 31.30 37.40 31.10Q37.55 30.90 37.70 30.90L37.70 30.95Q37.75 30.85 37.83 30.75Q37.90 30.65 38 30.65Q38 30.55 38.05 30.55L38.15 30.40L38.30 30.40Q38.40 30.20 38.55 30.20L38.80 29.95Q39.05 29.60 39.40 29.35Q39.75 29.10 40.05 28.90L41.20 27.70Q42.05 27 42.85 26.50L43.40 26.15L43.40 26.10Q43.65 26 43.83 25.82Q44 25.65 44.30 25.65Q44.60 25.65 45.15 25.95Q45.70 26.25 45.95 26.80Q46.05 27 46.17 26.95Q46.30 26.90 46.35 26.95Q46.60 26.55 46.92 26.20Q47.25 25.85 47.45 25.85Q47.65 25.85 48.20 26.15Q48.75 26.45 49.20 26.77Q49.65 27.10 49.55 27.30L49.40 27.40Q49.35 27.50 48.92 28.17Q48.50 28.85 48.10 29.45Q47.70 30.05 47.65 30.05Q47.60 30.25 47.40 30.55Q47.20 30.85 47.25 31.05Q46.90 31.30 46.67 31.75Q46.45 32.20 46.20 32.60Q45.75 33.35 45.30 34.08Q44.85 34.80 44.35 35.50Q42.95 37.65 41.42 39.70Q39.90 41.75 38.20 43.65Q37.60 44.35 37.05 45.05Q36.50 45.75 35.80 46.35Q35.65 46.45 35.25 46.90Q34.85 47.35 34.45 47.75Q34.05 48.15 33.95 48.15Q33.90 48.40 33.58 48.65Q33.25 48.90 33.05 49.10Q32.70 49.45 32.40 49.85Q32.10 50.25 31.70 50.60L30.45 51.75Q28.85 53.20 26.95 54.50Q26.75 54.65 26.30 55Q25.85 55.35 25.55 55.35L24.65 55.90Q24.40 56 24.15 56.10Q23.90 56.20 23.65 56.30Q23.30 56.45 22.92 56.60Q22.55 56.75 22.15 56.85Q21.85 56.95 21.55 57.08Q21.25 57.20 20.85 57.20Q20.70 57.30 19.92 57.50Q19.15 57.70 18.90 57.70L17.05 58.20Q16.90 58.25 16.60 58.25Q16.25 58.25 16.15 58.30M32.65 41.90Q33.10 41.85 33.77 41.25Q34.45 40.65 34.75 40.60Q34.95 40.30 35.30 40.08Q35.65 39.85 35.85 39.65L37.30 38.25Q38.35 37.20 39.50 36.02Q40.65 34.85 41.65 33.75L42.65 32.20L42.80 32L42.85 31.90L43.20 31.40Q43.45 31.05 43.75 30.70Q44.05 30.35 44.30 30L44.95 29.05Q44.95 28.85 44.98 28.65Q45 28.45 45.15 28.20Q45.25 28.10 45.30 27.95Q45.35 27.80 45.40 27.65L45.40 27.60L45.30 27.60Q45 27.90 44.60 28Q44.20 28.10 43.80 28.30L43.35 28.70Q42.60 29.10 41.85 29.55Q41.10 30 40.40 30.55Q40.20 30.55 40.20 30.75Q40.10 30.75 39.55 31.15Q39 31.55 38.52 31.92Q38.05 32.30 38.05 32.35Q37.90 32.55 37.55 32.70Q37.20 32.85 37.20 33.20L36.85 33.20L36.85 33.60L36.65 33.60L36.65 33.65Q36.60 33.75 36.48 33.90Q36.35 34.05 36.20 34.10Q36.10 34.20 36.10 34.10Q36.05 34.25 35.95 34.27Q35.85 34.30 35.75 34.40L35.40 35L35.35 35L35.50 35.40Q35.45 35.40 35.10 35.65Q34.75 35.90 34.75 35.95L34.70 35.95L34.70 36.20Q34.35 36.25 34.27 36.50Q34.20 36.75 34.05 37L33.50 37.60L33.20 38.40L32.80 38.90Q32.80 38.95 32.73 39.10Q32.65 39.25 32.70 39.25L32.70 39.30Q32.80 39.30 32.67 39.45Q32.55 39.60 32.35 39.55Q32.25 39.75 32.02 40.27Q31.80 40.80 31.80 41.25Q31.80 42.05 32.65 41.90ZM44.35 44.20Q43.95 43.90 43.95 43.25Q43.95 42.95 44.00 42.80Q44.10 42.55 44.18 42.38Q44.25 42.20 44.30 42L44.45 41.75L44.90 40.85Q45.15 40.30 45.55 39.75Q45.95 39.20 46.30 38.70Q46.30 38.65 46.40 38.52Q46.50 38.40 46.50 38.40L47.25 37.30Q47.45 37.05 47.68 36.80Q47.90 36.55 47.95 36.25L48.00 36.20Q48.15 36.10 48.38 35.77Q48.60 35.45 48.70 35.25Q49.25 34.55 49.78 33.85Q50.30 33.15 50.80 32.45L50.90 32.30L48.20 34.50Q47.75 34.85 47.30 35.33Q46.85 35.80 46.35 36.25Q46.00 36.55 45.85 36.55Q45.75 36.55 45.75 36.40Q45.75 36.10 46.20 35.75Q46.55 35.50 46.75 35.23Q46.95 34.95 47.30 34.65Q47.55 34.45 47.93 33.95Q48.30 33.45 48.55 33.25Q48.90 33 49.43 32.38Q49.95 31.75 50.25 31.45Q51.55 30.25 52.00 29.60Q52.45 28.95 52.95 28.45L54.70 26.45Q54.85 26.30 55.05 26L55.45 25.75Q55.75 25.80 56.28 26.20Q56.80 26.60 56.50 27.20Q56.50 27.25 56.10 27.63Q55.70 28 55.30 28.40Q54.90 28.80 54.80 28.85Q54.70 28.85 54.70 28.90Q53.85 29.90 53.55 30.10Q53.25 30.30 53.23 30.35Q53.20 30.40 53.00 31Q52.85 31.10 52.73 31.27Q52.60 31.45 52.50 31.65L52.35 31.65Q52.30 31.85 52.18 31.98Q52.05 32.10 51.95 32.25L51.70 32.65L51.30 33.05L50.95 33.55Q50.85 33.70 50.78 33.85Q50.70 34 50.60 34.15Q50.40 34.40 50.18 34.67Q49.95 34.95 49.75 35.25Q49.60 35.45 49.40 35.58Q49.20 35.70 49.10 36Q49.05 36.10 48.95 36.42Q48.85 36.75 48.75 36.75Q48.75 37.15 48.48 37.35Q48.20 37.55 47.95 37.85L47.50 38.70L47.30 39.10L46.80 39.75L46.35 40.60Q46.10 41.10 45.68 41.60Q45.25 42.10 45.15 42.65Q45.10 42.65 44.93 43.05Q44.75 43.45 44.58 43.83Q44.40 44.20 44.35 44.20M55.70 44.70Q55.50 44.75 55.10 44.80Q54.70 44.85 54.25 44.85Q53.75 44.85 53.28 44.75Q52.80 44.65 52.60 44.45Q52.50 44.25 52.53 44.20Q52.55 44.15 52.45 43.95Q52.25 43.65 52.23 43.75Q52.20 43.85 52.10 43.55Q52.05 43.40 52.05 43Q52.05 42.40 52.13 41.67Q52.20 40.95 52.20 40.70Q52.20 40.05 52.38 39.48Q52.55 38.90 52.70 38.35Q52.95 37.30 53.40 36.35Q53.85 35.40 54.35 34.50Q54.75 33.80 55.20 33.08Q55.65 32.35 56.20 31.70L56.30 31.50Q56.05 31.55 55.85 31.77Q55.65 32 55.50 32.20Q55.35 32.40 55.10 32.65Q54.85 32.90 54.60 33.10Q52.80 34.75 50.88 36.88Q48.95 39 47.35 40.70Q46.15 41.90 45.85 41.90Q45.65 41.90 46.03 41.35Q46.40 40.80 47.25 40.15Q47.25 40.15 47.53 39.83Q47.80 39.50 47.80 39.45Q48.10 39.30 48.23 39.02Q48.35 38.75 48.70 38.55L49.45 37.75L49.85 37.15Q50.30 36.45 50.93 35.90Q51.55 35.35 52.10 34.70Q52.15 34.65 52.53 34.27Q52.90 33.90 52.95 33.90Q53.05 33.55 53.48 33.23Q53.90 32.90 54.10 32.70L55.30 31.45L55.35 31.40L55.45 31.45L55.40 31.40Q55.50 31.15 55.83 30.92Q56.15 30.70 56.35 30.50Q56.60 30.25 57.20 29.52Q57.80 28.80 58.60 28.80Q59.00 28.80 59.35 29Q59.50 29.05 59.88 29.40Q60.25 29.75 60.53 30.05Q60.80 30.35 60.65 30.45Q60.45 30.65 60.35 30.70Q60.15 30.85 59.68 31.30Q59.20 31.75 58.95 31.70Q58.95 31.70 58.73 32.05Q58.50 32.40 57.50 33.65Q57.40 33.55 57.03 34.20Q56.65 34.85 56.50 35.10Q56.25 35.65 55.93 36.02Q55.60 36.40 55.30 36.90L55.30 37Q55.30 37.15 55.20 37.23Q55.10 37.30 55.00 37.40L55.00 37.75Q55.00 37.90 54.78 38.38Q54.55 38.85 54.40 39.40Q54.55 39.95 54.35 40.30Q54.15 40.65 53.93 40.98Q53.70 41.30 53.75 41.85Q53.75 41.95 53.73 42.20Q53.70 42.45 53.70 42.80Q53.70 43.20 53.80 43.65Q53.90 44.10 54.15 44.35Q54.30 44.50 54.55 44.50Q55.05 44.50 55.65 44.17Q56.25 43.85 56.45 43.75L56.75 43.55Q56.75 43.60 56.75 43.60Q56.70 43.70 56.45 43.98Q56.20 44.25 56.25 44.35Q56.10 44.35 56.10 44.35L55.70 44.70ZM93.90 48.75Q93.60 48.80 93.08 48.88Q92.55 48.95 91.95 48.95Q91.15 48.95 90.35 48.77Q89.55 48.60 89.20 48.15Q89.15 48 89.13 47.88Q89.10 47.75 89.10 47.70Q89.10 47.50 89 47.25Q88.75 46.70 88.33 46.65Q87.90 46.60 87.80 46Q87.75 45.80 87.73 45.65Q87.70 45.50 87.70 45.30Q87.70 44.70 87.83 44.13Q87.95 43.55 88 43.05Q88.05 42.25 88.48 41.10Q88.90 39.95 89.40 38.80Q89.90 37.65 90.10 37Q90.70 35.15 91.63 33.45Q92.55 31.75 93.50 30.15L93.80 29.65L91.65 31.85Q87.60 35.95 84.83 38.42Q82.05 40.90 80.33 42.13Q78.60 43.35 77.75 43.75Q76.90 44.15 76.65 44.15Q75.75 44.15 75.30 43.65Q75.25 43.60 75.20 43.60Q75.15 43.60 75.05 43.55Q74.90 43.45 74.78 43.27Q74.65 43.10 74.55 42.95Q73.95 42.30 73.48 41Q73 39.70 73 38.50Q73 37.75 73.20 37.30Q73.30 37.15 73.48 36.77Q73.65 36.40 73.65 36.30L73.70 36.30Q73.70 37 73.85 37Q74 37 74.18 36.42Q74.35 35.85 74.35 35.70Q74.35 35.75 74.33 35.73Q74.30 35.70 74.30 35.70L74.25 35.70Q74.20 35.75 74.20 35.85Q74.20 35.95 74.10 36Q73.95 35.85 74 35.75Q74.75 34.70 75.03 34.20Q75.30 33.70 75.48 33.35Q75.65 33 76 32.50Q76.10 32.30 76.28 32.23Q76.45 32.15 76.55 31.95Q76.70 31.70 76.78 31.45Q76.85 31.20 77.05 31Q77.15 31.05 77.38 30.73Q77.60 30.40 77.60 30.40L77.65 30.15Q78.35 29.25 78.98 28.27Q79.60 27.30 80.40 26.50L81.15 25.75L82.90 23.80Q83.70 22.90 84.75 21.95Q85.80 21 86.70 20.20Q86.90 20 87.13 19.85Q87.35 19.70 87.55 19.50Q88.45 18.80 88.85 18.35Q89.25 17.90 90.15 17.20Q90.65 16.80 91.40 16.17Q92.15 15.55 92.75 15.10L92.50 15.05L91.35 14.85Q91 14.80 90.70 14.55Q90.45 14.70 90.25 14.65Q90.05 14.65 89.85 14.45L89.65 14.65L89.55 14.65Q89.45 14.65 88.95 14.55Q88.45 14.45 88.05 14.45Q87.75 14.45 87.65 14.55Q87.50 14.45 87.30 14.45Q87.10 14.45 86.95 14.40Q86.60 14.60 85.95 14.60Q85.40 14.60 84.73 14.52Q84.05 14.45 83.55 14.45Q83 14.45 82.85 14.60Q80.60 14.75 77.68 15.67Q74.75 16.60 71.75 18.22Q68.75 19.85 66.17 22.17Q63.60 24.50 62 27.45Q61.65 28.15 61.15 29.27Q60.65 30.40 60.40 32.45Q60.40 32.50 60.28 32.55Q60.15 32.60 60.15 31.95Q60.15 31.65 60.20 31.17Q60.25 30.70 60.35 30L60.35 29.95Q60.35 29.75 60.48 29.50Q60.60 29.25 60.45 29.20L59.55 29.90Q59.50 29.65 59.73 29.10Q59.95 28.55 60.28 27.92Q60.60 27.30 60.85 27Q62.25 25.15 64.05 23.32Q65.85 21.50 67.80 19.90Q69.75 18.30 71.60 17.20Q72.45 16.70 73.28 16.32Q74.10 15.95 74.90 15.55Q75 15.50 75.50 15.27Q76 15.05 76.50 14.82Q77 14.60 77.05 14.55Q77.45 14.45 78.25 14.15Q79.05 13.85 80 13.55Q80.95 13.25 81.73 13.05Q82.50 12.85 82.80 13L84.35 12.75Q84.70 12.50 85.58 12.38Q86.45 12.25 87.55 12.17Q88.65 12.10 89.60 12.10Q90.40 12.10 90.97 12.13Q91.55 12.15 91.75 12.25L91.75 12.20Q91.85 12.15 92.05 12.15Q92.25 12.15 92.38 12.20Q92.50 12.25 92.60 12.35Q92.90 12.20 93.15 12.30Q93.30 12.30 93.45 12.38Q93.60 12.45 93.75 12.50L93.90 12.50Q94.15 12.50 94.33 12.63Q94.50 12.75 94.65 12.85Q94.90 12.70 95 12.75Q95.10 12.75 95.20 12.82Q95.30 12.90 95.35 13Q95.45 12.95 95.97 12.72Q96.50 12.50 96.50 12.60Q96.65 12.50 96.85 12.50Q97.15 12.50 97.28 12.85Q97.40 13.20 97.90 13.15L98.10 13.15Q98.40 13.15 98.35 13.32Q98.30 13.50 98.65 13.75Q98.90 13.95 99.10 14.13Q99.30 14.30 99.30 14.45Q99.30 14.70 98.55 15.15Q97.75 15.25 97.28 15.67Q96.80 16.10 96.35 16.20L96.30 16.35Q95.95 16.40 95.72 16.67Q95.50 16.95 95.15 17Q95.05 17.20 94.97 17.25Q94.90 17.30 94.60 17.55Q93.85 18.10 93.10 18.67Q92.35 19.25 91.65 19.85Q91.50 20 91.13 20.20Q90.75 20.40 90.60 20.50Q90.35 20.70 90.38 20.85Q90.40 21 90.10 21.20Q90.05 21.25 89.65 21.63Q89.25 22 88.88 22.35Q88.50 22.70 88.50 22.75Q88.30 22.90 87.63 23.55Q86.95 24.20 86.08 25.07Q85.20 25.95 84.38 26.85Q83.55 27.75 83 28.40Q82.45 29.05 82.40 29.20Q82 29.50 81.58 30.13Q81.15 30.75 80.85 31.20Q79 33.80 77.33 36.15Q75.65 38.50 74.95 41.60Q74.90 41.75 74.90 42Q74.90 42.40 75.10 42.58Q75.30 42.75 75.55 43Q75.95 42.95 76.48 42.73Q77 42.50 77.35 42.30Q77.75 42.10 79.53 41.10Q81.30 40.10 83.45 38.40Q85.05 37.10 86.60 35.67Q88.15 34.25 89.25 33.15Q90.35 32.05 90.65 31.75Q92 30.30 93.40 28.70Q94.80 27.10 95.70 25.95L97.60 22.85Q97.80 22.55 98.23 21.67Q98.65 20.80 99.23 19.80Q99.80 18.80 100.53 18.07Q101.25 17.35 102.05 17.35Q102.40 17.35 102.90 17.60Q103.15 17.70 103.78 18.32Q104.40 18.95 104.88 19.55Q105.35 20.15 105.05 20.30Q104.90 20.40 104.78 20.52Q104.65 20.65 104.45 20.75Q104.20 20.90 103.70 21.35Q103.20 21.80 102.68 22.17Q102.15 22.55 101.85 22.55Q101.85 22.55 101.70 22.77Q101.55 23 100.95 23.75Q100.35 24.50 99.05 26Q98.90 25.90 98.48 26.43Q98.05 26.95 97.65 27.63Q97.25 28.30 97.05 28.60Q96.50 29.55 96.13 30.27Q95.75 31 95.20 31.85L95.20 31.95Q95.20 32.25 94.97 32.38Q94.75 32.50 94.60 32.70Q94.60 32.90 94.60 33.05Q94.60 33.20 94.55 33.40Q94.55 33.50 94.22 34.20Q93.90 34.90 93.47 35.83Q93.05 36.75 92.65 37.63Q92.25 38.50 92.10 39Q92.15 39.15 92.15 39.30Q92.15 39.45 92.15 39.60Q92.15 40.40 91.78 40.95Q91.40 41.50 91.03 42.08Q90.65 42.65 90.65 43.50Q90.70 43.70 90.60 44.38Q90.50 45.05 90.50 45.80Q90.50 46.45 90.63 47.08Q90.75 47.70 91.15 48.10Q91.40 48.35 91.85 48.35Q92.75 48.35 93.90 47.80Q95.05 47.25 95.40 47.05L95.95 46.75Q95.95 46.80 95.97 46.83Q96 46.85 95.90 46.85Q95.85 47 95.38 47.50Q94.90 48 94.95 48.15Q94.90 48.10 94.78 48.08Q94.65 48.05 94.70 48.15L93.90 48.75ZM74 58.10L72.75 57.95L72.60 57.95Q72.55 58 72.15 58Q71.65 58 70.92 57.90Q70.20 57.80 69.95 57.75L69.45 57.60L69.45 57.65Q69.30 57.65 69.13 57.58Q68.95 57.50 68.80 57.45Q68.30 57.30 67.83 57.13Q67.35 56.95 66.80 56.75L65.95 56.30Q65.75 56.05 65.13 55.58Q64.50 55.10 64.40 54.90L64.60 54.70L64.85 55.05Q65.20 55.25 65.53 55.58Q65.85 55.90 66.20 56.10Q67.05 56.60 67.97 56.60Q68.90 56.60 69.80 56.70Q70.05 56.70 70.30 56.73Q70.55 56.75 70.80 56.80L71.75 56.55L71.90 56.65Q71.95 56.60 72.40 56.60Q72.65 56.60 72.92 56.58Q73.20 56.55 73.15 56.45Q73.20 56.50 73.28 56.50Q73.35 56.50 73.35 56.60Q73.95 56.30 74.75 56.17Q75.55 56.05 76.20 55.85Q76.55 55.75 76.85 55.60Q77.15 55.45 77.60 55.45Q77.90 55.05 78.67 54.95Q79.45 54.85 79.90 54.60Q83.15 53 86.20 51.30L87 50.60Q87.50 50.25 88.03 50Q88.55 49.75 89.05 49.40L89.70 48.65Q89.80 48.55 89.88 48.58Q89.95 48.60 90.05 48.55L90.40 48.05L90.45 47.90L90.75 47.95L91.40 47.30L91.65 46.75L92.85 45.30Q93 45.05 93.23 44.88Q93.45 44.70 93.50 44.50L93.50 44.45L93.55 44.45Q93.75 44.45 93.75 44.50Q94.15 43.50 94.85 42.80L95 42.45Q95.10 42.35 95.33 42.25Q95.55 42.15 95.60 42L95.70 41.65L96.30 40.85L96.55 40.35L97.10 39.75L98.10 38.10L98.75 37.25Q98.95 36.85 99.15 36.50Q99.35 36.15 99.55 35.80L99.95 35.30L100.25 34.60L100.60 34.30L100.75 33.70Q100.90 33.45 101.03 33.23Q101.15 33 101.25 32.80Q101.40 32.55 101.88 31.60Q102.35 30.65 102.90 29.63Q103.45 28.60 103.70 28.30Q102.90 29.10 102.13 29.85Q101.35 30.60 101.10 30.85Q100.55 31.50 99.83 32.15Q99.10 32.80 98.55 33.40Q98.05 33.90 97.63 34.40Q97.20 34.90 96.80 35.40Q96.60 35.60 96.45 35.60Q96.30 35.60 96.30 35.45Q96.30 35.25 96.60 34.90Q96.70 34.75 96.90 34.52Q97.10 34.30 97.25 34.20L98.85 32.35L100.15 31L101.05 29.90L104.20 26.45Q103.70 26.10 103.23 25.82Q102.75 25.55 102.65 25.40Q102.35 25.10 102.38 24.93Q102.40 24.75 102.55 24.60Q102.70 24.50 103.08 24.35Q103.45 24.20 103.55 24.15Q103.75 24.05 103.90 24.05Q104.45 24.05 104.65 24.25Q105.25 24.40 105.70 24.75Q105.85 24.45 106.05 24.18Q106.25 23.90 106.45 23.60Q106.65 23.35 106.83 23.05Q107 22.75 107.35 22.55Q107.45 22.30 107.98 21.70Q108.50 21.10 108.70 20.90L110 19.35Q110.15 19.20 110.38 19.05Q110.60 18.90 110.70 18.75L111.75 18.15L111.90 18.05Q111.95 17.85 112.43 17.55Q112.90 17.25 113.43 16.97Q113.95 16.70 114.15 16.65L114.60 16.45Q114.70 16.35 114.88 16.30Q115.05 16.25 115.20 16.20Q115.70 16 116.18 15.88Q116.65 15.75 117.15 15.65L118 15.55Q118.30 15.60 119.03 15.67Q119.75 15.75 119.90 15.90L119.85 16.15L119.50 16.05Q119.15 16 118.80 15.92Q118.45 15.85 118.10 15.85Q117.15 15.85 116.35 16.42Q115.55 17 114.75 17.55L113.85 18L113.20 18.80L113 18.80Q112.95 19 112.48 19.30Q112 19.60 112.10 19.70Q112.05 19.75 111.98 19.77Q111.90 19.80 111.90 19.75Q111.55 20.35 111.33 20.50Q111.10 20.65 110.60 21.20Q110.40 21.50 109.85 22.27Q109.30 23.05 108.95 23.30Q108.90 23.80 108.35 24.60Q107.80 25.40 107.40 25.95Q107.65 26.15 107.83 26.27Q108 26.40 108 26.40Q108.05 26.70 108.30 27.02Q108.55 27.35 108.70 27.45Q108.85 27.55 108.90 27.80Q109.10 28.05 109.18 28.20Q109.25 28.35 109.25 28.90Q109.25 29.40 109.68 29.73Q110.10 30.05 109.90 30.60Q109.85 30.75 109.83 30.90Q109.80 31.05 109.80 31.15Q109.80 31.50 109.98 31.88Q110.15 32.25 110.15 32.80Q110.10 32.85 110.10 32.95Q110.10 33.05 110.23 33.20Q110.35 33.35 110.25 33.55Q110.20 33.65 110.13 33.73Q110.05 33.80 110 33.95Q109.95 34 109.95 34.25Q109.95 34.45 109.98 34.70Q110 34.95 109.90 35.10Q109.60 35.50 109.60 35.80Q109.60 36 109.75 36.08Q109.90 36.15 109.70 36.40L109.35 36.80Q109.15 37.10 109.18 37.42Q109.20 37.75 108.95 38Q108.70 38.30 108.15 39.10Q107.60 39.90 107.08 40.65Q106.55 41.40 106.25 41.70L105.85 42.05L104.20 43.60Q103.90 43.85 103.60 44.02Q103.30 44.20 103 44.45Q102.65 44.65 102.33 44.85Q102 45.05 101.65 45.25Q101.35 45.45 100.73 45.58Q100.10 45.70 99.85 45.75Q99.60 45.75 98.88 45.67Q98.15 45.60 97.90 45.45Q97.55 45.20 97.42 44.92Q97.30 44.65 97.30 44.40Q97.30 44.20 97.33 44Q97.35 43.80 97.35 43.60Q97.40 43.20 97.60 42.92Q97.80 42.65 98 42.45Q98.25 42.25 98.45 42.02Q98.65 41.80 98.90 41.60Q99.05 41.35 99.42 41.02Q99.80 40.70 100 40.70L100 40.65Q100.15 40.50 100.35 40.25Q100.55 40 100.70 39.95Q100.70 39.95 100.73 39.95Q100.75 39.95 100.80 39.90Q100.80 39.90 100.83 39.85Q100.85 39.80 100.90 39.75L100.90 39.70Q101 39.65 101.10 39.60Q101.20 39.55 101.25 39.55Q101.35 39.40 101.45 39.40Q101.45 39.35 101.53 39.25Q101.60 39.15 101.60 39.15L101.80 39.05Q101.90 38.95 101.92 39Q101.95 39.05 102 39Q102.80 38.45 103.55 37.83Q104.30 37.20 105.70 36.60L105.95 36.65Q104.10 37.75 102.80 39Q101.50 40.25 101 40.70Q100.75 40.95 100.30 41.55Q99.85 42.15 99.40 42.77Q98.95 43.40 98.65 43.80Q98.60 43.85 98.55 44Q98.50 44.15 98.50 44.35Q98.50 44.70 98.75 45Q99 45.30 99.70 45.30Q99.90 45.30 100.10 45.27Q100.30 45.25 100.55 45.20Q100.90 45.10 101.13 44.90Q101.35 44.70 101.55 44.70L101.60 44.60Q101.75 44.60 101.88 44.45Q102 44.30 102.15 44.25Q102.25 44.15 102.60 43.88Q102.95 43.60 103.10 43.50Q103.45 43.25 103.80 42.95Q104.15 42.65 104.50 42.30Q104.60 42.20 104.70 42.10Q104.80 42 104.85 41.95Q104.95 41.85 105.08 41.52Q105.20 41.20 105.35 41.15Q105.40 41.10 105.68 40.65Q105.95 40.20 106 40.20Q106.15 40.05 106.58 39.40Q107 38.75 107.45 37.83Q107.90 36.90 108.05 36Q108.10 35.95 108.10 35.60Q108.10 35.10 108.03 34.38Q107.95 33.65 108 33.45Q108.15 32.60 108.15 32.15Q108.15 31.30 107.83 30.70Q107.50 30.10 107 28.75Q106.85 28.45 106.55 28.15L106.40 28.55Q106.35 28.75 105.95 29.30Q105.55 29.85 105.45 29.85Q105.45 30.05 105.23 30.38Q105 30.70 105.05 30.85Q104.70 31.15 104.50 31.57Q104.30 32 104.05 32.40Q103.60 33.15 103.15 33.90Q102.70 34.65 102.20 35.35Q100.80 37.50 99.25 39.52Q97.70 41.55 96.05 43.45Q95.45 44.15 94.88 44.88Q94.30 45.60 93.60 46.20Q93.50 46.30 93.10 46.75Q92.70 47.20 92.30 47.60Q91.90 48 91.80 48Q91.75 48.25 91.40 48.50Q91.05 48.75 90.85 48.95Q90.50 49.30 90.20 49.67Q89.90 50.05 89.55 50.45Q89.25 50.75 88.90 51.02Q88.55 51.30 88.25 51.60Q87.50 52.40 86.60 53.05Q85.70 53.70 84.80 54.30Q84.60 54.45 84.13 54.80Q83.65 55.15 83.40 55.15L82.45 55.75L81.45 56.10L80 56.70Q79.65 56.75 79.38 56.90Q79.10 57.05 78.70 57Q78.50 57.15 77.75 57.33Q77 57.50 76.70 57.50L74.85 58.05L74.40 58.05Q74.10 58.05 74 58.10M103.80 28.15L103.85 28.15L103.90 28.05Q103.80 28.15 103.80 28.15Z"/></g></g></svg>