<svg xmlns="http://www.w3.org/2000/svg" viewBox="0 9.600000381469727 94.5 41.900001525878906" data-asc="0.85"><g fill="#32005c"><g fill="#32005c" transform="translate(0, 0)"><path d="M1.80 51.50Q1.55 51.40 0.85 51.35Q0.15 51.30 0 51.15L0.10 50.90L0.45 51Q0.80 51.05 1.13 51.13Q1.45 51.20 1.80 51.20Q2.80 51.20 3.70 50.63Q4.60 50.05 5.45 49.55Q5.70 49.40 5.95 49.27Q6.20 49.15 6.40 49.05L7.20 48.25L7.40 48.25Q7.50 48.05 8.03 47.75Q8.55 47.45 8.45 47.35Q8.55 47.35 8.60 47.30Q8.65 47.25 8.70 47.30Q9.20 46.70 9.43 46.48Q9.65 46.25 10.20 45.70Q10.50 45.40 11.20 44.70Q11.90 44 12.25 43.75Q12.40 43.25 12.97 42.90Q13.55 42.55 14 42Q13.85 41.85 14.18 41.45Q14.50 41.05 14.90 40.70Q15.30 40.35 15.25 40.35L15.50 39.90Q15.60 39.75 16.03 39.23Q16.45 38.70 16.90 38.20Q17.35 37.70 17.35 37.70Q17.45 37.50 17.73 37.17Q18 36.85 17.95 36.70Q18.35 36.40 18.90 35.70Q19.45 35 19.75 34.65Q20.30 33.90 20.65 33.20Q21.00 32.50 21.60 31.80Q23.40 29.65 25.18 27.40Q26.95 25.15 28.95 23.25Q29.65 22.55 30.15 21.85Q30.65 21.15 31.45 20.55Q31.60 20.45 32.05 19.95Q32.50 19.45 32.93 19Q33.35 18.55 33.45 18.55Q33.55 18.30 33.95 18.05Q34.35 17.80 34.55 17.60Q34.95 17.25 35.35 16.85Q35.75 16.45 36.15 16.10Q36.35 15.90 36.70 15.70Q36.35 15.40 36.30 15.45L35.50 15.20Q34.95 15 34.18 14.50Q33.40 14 33.15 13.95L33.10 13.70Q32.95 13.80 32.70 13.70L32.70 13.65L32.60 13.90Q32.15 13.80 32 13.50Q31.85 13.20 31.40 13.20Q30.75 13.20 30.15 13.05Q29.55 12.90 28.95 12.90Q28.70 12.90 28.43 12.82Q28.15 12.75 27.90 12.70Q27.75 12.85 27.40 12.85Q27.20 12.85 27.05 12.82Q26.90 12.80 26.70 12.75L26.60 12.95L26.45 12.95Q26.35 12.95 25.83 12.97Q25.30 13 24.85 13.05Q24.40 13.10 24.35 13.25Q24.15 13.25 23.90 13.27Q23.65 13.30 23.40 13.25Q23.15 13.55 22.18 13.70Q21.20 13.85 20.30 13.97Q19.40 14.10 19.35 14.35Q16.70 14.80 14.10 16.13Q11.50 17.45 9.38 19.45Q7.25 21.45 5.97 24Q4.70 26.55 4.70 29.45Q4.70 30.10 4.93 30.80Q5.15 31.50 5.15 31.85Q5.15 31.95 5.05 31.95Q4.80 31.85 4.72 31.55Q4.65 31.25 4.35 31.25L4.20 31.35Q3.70 31.05 3.60 30.42Q3.50 29.80 3.50 29.30Q3.50 27.45 4.20 25.57Q4.90 23.70 6 21.97Q7.10 20.25 8.35 19Q8.90 18.45 9.55 17.97Q10.20 17.50 10.85 17Q10.90 16.95 11.33 16.67Q11.75 16.40 12.18 16.13Q12.60 15.85 12.60 15.80Q13.15 15.60 14.15 14.88Q15.15 14.15 16.18 13.50Q17.20 12.85 17.90 12.95L17.95 12.90Q18.20 12.65 19.20 12.30Q20.20 11.95 21.45 11.65Q22.70 11.35 23.80 11.15Q24.90 10.95 25.35 11L27.75 10.80Q28.00 10.65 28.65 10.63Q29.30 10.60 29.55 10.65Q29.70 10.60 29.85 10.57Q30.00 10.55 30.20 10.55Q30.45 10.55 30.70 10.57Q30.95 10.60 31.15 10.65Q31.25 10.60 31.45 10.60Q31.70 10.60 32.05 10.67Q32.40 10.75 32.60 10.80Q32.75 10.65 32.95 10.65Q33.20 10.65 33.40 10.92Q33.60 11.20 34.10 11.20Q34.40 11.20 34.68 11.30Q34.95 11.40 35.25 11.45L38 12.30L40 13.30Q40.40 12.95 41.35 12.60Q41.50 12.50 42.15 12.35Q42.80 12.20 43.48 12.05Q44.15 11.90 44.30 11.90L45.30 11.30Q45.55 11.20 45.85 11.13Q46.15 11.05 46.40 10.95Q46.80 10.80 47.18 10.65Q47.55 10.50 47.95 10.40Q48.30 10.30 48.63 10.15Q48.95 10 49.30 10.05Q49.95 9.60 50.35 9.60Q50.60 9.60 50.90 9.70Q51.20 9.80 51.70 9.80L51.90 9.80Q52.00 9.75 52.40 9.75Q52.95 9.75 53.60 9.82Q54.25 9.90 54.50 10L54.95 10.15L54.95 10.10Q55.15 10.10 55.30 10.17Q55.45 10.25 55.60 10.30Q56.10 10.45 56.55 10.60Q57.00 10.75 57.45 11L58.25 11.45Q58.40 11.65 58.95 12.13Q59.50 12.60 59.55 12.85L59.30 13.05L59.10 12.70Q58.85 12.45 58.60 12.15Q58.35 11.85 57.95 11.65Q57.20 11.15 56.28 11.15Q55.35 11.15 54.45 11.10L53.45 10.95L52.50 11.20L52.35 11.10Q52.20 11.20 51.63 11.17Q51.05 11.15 51.05 11.30Q51.00 11.25 50.95 11.22Q50.90 11.20 50.85 11.15Q50.05 11.50 49.75 11.63Q49.45 11.75 49.28 11.80Q49.10 11.85 48.80 11.95Q48.50 12.05 47.70 12.45Q46.75 12.85 45.80 13.30Q44.85 13.75 43.90 14.20Q43.25 14.40 42.83 14.70Q42.40 15 41.85 15.25Q41.95 15.65 42.30 16.07Q42.65 16.50 42.85 16.65Q42.95 16.75 43.03 16.90Q43.10 17.05 43.20 17.20Q43.45 17.65 43.63 17.88Q43.80 18.10 43.70 18.95Q43.65 19.65 44.25 20.13Q44.85 20.60 44.85 21.30Q44.85 21.40 44.75 21.70Q44.60 22.15 44.60 22.55Q44.60 23.20 44.90 23.75Q45.20 24.30 45.20 25.25Q45.15 25.35 45.15 25.45Q45.15 25.70 45.35 25.93Q45.55 26.15 45.35 26.45Q45.30 26.65 45.15 26.75Q45.00 26.85 44.90 27.05Q44.85 27.15 44.85 27.50Q44.85 27.70 44.88 27.90Q44.90 28.10 44.90 28.30Q44.90 28.70 44.75 28.95Q43.90 30.20 43.43 31.75Q42.95 33.30 42.55 33.85Q42.40 34.05 42.25 34.20Q42.10 34.35 42.00 34.55Q41.65 34.95 41.68 35.50Q41.70 36.05 41.35 36.45Q40.75 37.20 40.18 38.05Q39.60 38.90 38.90 39.55L38.25 40.15Q37.60 40.75 36.95 41.38Q36.30 42 35.60 42.65Q35.15 43 34.65 43.30Q34.15 43.60 33.70 43.95Q32.95 44.55 31.30 45.27Q29.65 46 27.75 46.52Q25.85 47.05 24.30 47.05Q22.95 47.05 22.25 46.55Q21.15 45.80 20.90 45.17Q20.65 44.55 20.70 43.80Q20.70 43.20 21.00 42.70Q21.30 42.20 21.65 41.90Q22.05 41.55 22.38 41.15Q22.70 40.75 23.10 40.45Q23.35 40.05 23.40 39.77Q23.45 39.50 23.80 39.50L23.80 39.40Q24.05 39.15 24.35 38.80Q24.65 38.45 24.90 38.30Q24.95 38.30 24.98 38.27Q25.00 38.25 25.05 38.25Q25.10 38.20 25.15 38.10Q25.20 38 25.25 37.95L25.25 37.90Q25.40 37.85 25.53 37.75Q25.65 37.65 25.80 37.60Q25.90 37.50 25.98 37.42Q26.05 37.35 26.10 37.35Q26.15 37.30 26.28 37.15Q26.40 37 26.40 37L26.70 36.90Q26.80 36.70 26.83 36.75Q26.85 36.80 27.00 36.75Q28.30 35.85 31.18 34.10Q34.05 32.35 38 30.95L38.40 31.05Q36.65 31.85 34.83 32.98Q33 34.10 31.38 35.23Q29.75 36.35 28.63 37.25Q27.50 38.15 27.10 38.55Q26.70 38.90 25.83 39.90Q24.95 40.90 24.20 42.05Q23.45 43.20 23.40 43.95Q23.35 45.05 23.90 45.48Q24.45 45.90 25.40 45.90Q26.75 45.90 28.45 45.27Q30.15 44.65 31.65 43.85Q33.15 43.05 33.80 42.50Q34.40 42 35.02 41.55Q35.65 41.10 36.15 40.55L36.70 39.95Q36.90 39.80 37.08 39.33Q37.25 38.85 37.45 38.65Q37.50 38.60 37.75 38.25Q38 37.90 38.25 37.52Q38.50 37.15 38.50 37.15Q38.80 36.90 39.48 35.83Q40.15 34.75 40.83 33.27Q41.50 31.80 41.80 30.40Q41.90 30.20 41.90 29.70Q41.90 28.90 41.80 27.77Q41.70 26.65 41.75 26.30Q41.90 25.65 41.95 25.15Q42.00 24.65 42.00 24.25Q42.00 23.35 41.75 22.65Q41.50 21.95 41.08 21.07Q40.65 20.20 40.10 18.80Q40.05 18.55 39.88 18.25Q39.70 17.95 39.40 17.75L39.15 17.55Q39.10 17.65 39 17.77Q38.90 17.90 38.70 18L37.95 18.80Q37.80 18.85 37.55 18.85L37.10 19.35L37.05 19.50L36.75 19.45L36 20.10L35.65 20.65Q35.30 21 34.95 21.35Q34.60 21.70 34.20 22.10Q34 22.30 33.77 22.47Q33.55 22.65 33.40 22.90L33.40 23L33.35 23Q33.35 22.95 33.25 22.90Q33.15 22.85 33.20 22.90Q32.60 23.85 31.80 24.60L31.55 24.95Q31.40 25.05 31.18 25.15Q30.95 25.25 30.85 25.40L30.70 25.75L29.95 26.55L29.65 27.10L29.00 27.65L27.70 29.30L26.90 30.20L25.85 31.60L25.40 32.10L24.95 32.80L24.55 33.15L24.30 33.70Q24.10 33.90 23.95 34.13Q23.80 34.35 23.65 34.60Q23.50 34.80 23.08 35.38Q22.65 35.95 22.15 36.63Q21.65 37.30 21.23 37.80Q20.80 38.30 20.70 38.30Q20.70 38.35 20.18 38.95Q19.65 39.55 18.98 40.33Q18.30 41.10 17.78 41.70Q17.25 42.30 17.25 42.35L15.80 43.95Q15.55 44.20 15.08 44.48Q14.60 44.75 14.20 45Q14.10 45.20 13.45 45.85Q12.80 46.50 12.55 46.65L10.50 47.70Q10.30 47.85 10.08 48Q9.85 48.15 9.70 48.30L8.55 48.90L8.40 49Q8.30 49.15 7.78 49.45Q7.25 49.75 6.70 50.02Q6.15 50.30 5.90 50.40L5.40 50.60Q5.25 50.70 5.08 50.73Q4.90 50.75 4.75 50.85Q4.25 51.05 3.77 51.20Q3.30 51.35 2.75 51.40L1.80 51.50ZM51.30 47.15Q51.05 47.35 50.60 47.35Q49.95 47.35 49.60 46.85L49.30 46.20Q49.20 45.90 49.03 45.65Q48.85 45.40 48.85 45.05Q48.85 44.65 48.95 44.27Q49.05 43.90 49.10 43.55Q49.25 42.85 49.55 42.13Q49.85 41.40 50.10 40.75Q50.60 39.50 51.25 38.33Q51.90 37.15 52.55 35.95L53.15 34.90L52.90 35.25Q52.45 35.90 52.05 36.50Q51.65 37.10 51.20 37.70Q50.45 38.65 49.63 39.58Q48.80 40.50 47.95 41.30Q47.60 41.60 47.20 41.90Q46.80 42.20 46.35 42.45Q45.95 42.65 45.48 42.95Q45.00 43.25 44.55 43.25Q44.05 43.25 43.60 42.85Q43.15 42.45 42.90 41.95Q42.75 41.65 42.65 41.33Q42.55 41 42.55 40.60Q42.60 40 42.85 39.50Q43.10 39 43.35 38.50Q44.00 37.35 44.78 36.33Q45.55 35.30 46.45 34.35Q46.60 34.15 47.03 33.67Q47.45 33.20 47.88 32.77Q48.30 32.35 48.45 32.35Q48.35 32.25 48.45 32.25Q48.60 32.10 48.95 31.75Q49.30 31.40 49.50 31.40Q49.55 31.30 49.70 31.10Q49.85 30.90 50.00 30.90L50.00 30.95Q50.05 30.85 50.13 30.75Q50.20 30.65 50.30 30.65Q50.30 30.55 50.35 30.55L50.45 30.40L50.60 30.40Q50.70 30.20 50.90 30.20L51.10 29.95Q51.35 29.65 51.70 29.38Q52.05 29.10 52.35 28.90L53.50 27.70Q54.35 27 55.15 26.50L55.70 26.15L55.70 26.10Q55.95 26 56.13 25.82Q56.30 25.65 56.60 25.65Q56.95 25.65 57.40 26Q57.85 26.35 58.25 26.80Q58.40 26.55 58.60 26.30Q58.80 26.05 58.90 25.95Q58.95 25.90 59.28 25.93Q59.60 25.95 59.60 25.90L59.70 25.90Q59.95 26.05 60.53 26.22Q61.10 26.40 61.63 26.67Q62.15 26.95 62.15 27.45Q62.15 27.65 62.00 27.90Q61.80 28.20 61.48 28.38Q61.15 28.55 60.90 28.75L60.45 29.20Q60.25 29.40 59.60 30.10Q58.95 30.80 58.70 30.90Q58.70 30.90 58.18 31.60Q57.65 32.30 56.98 33.23Q56.30 34.15 55.75 34.90Q55.20 35.65 55.15 35.75Q54.65 36.50 54.20 37.05Q53.75 37.60 53.35 38.30Q53.30 38.50 53.15 38.65Q53.00 38.80 52.90 38.95L52.75 39.40Q52.70 39.55 52.43 40Q52.15 40.45 52.05 40.50Q52.00 40.85 51.68 41.33Q51.35 41.80 51.40 42L51.30 41.85L51.25 41.90Q51.20 42.10 51.13 42.63Q51.05 43.15 50.80 43.20L50.80 43.30Q50.80 43.50 50.73 43.70Q50.65 43.90 50.60 44.10Q50.55 44.30 50.45 45.02Q50.35 45.75 50.35 46.30Q50.35 47 50.55 47Q50.95 47.05 51.53 46.55Q52.10 46.05 52.40 45.75L52.75 45.40Q52.80 45.45 52.75 45.50Q52.70 45.60 52.35 46Q52.00 46.40 52.00 46.50Q51.85 46.50 51.85 46.55L51.30 47.15M44.95 41.90Q45.40 41.85 46.08 41.25Q46.75 40.65 47.10 40.60Q47.25 40.30 47.60 40.08Q47.95 39.85 48.15 39.65L49.60 38.25Q50.65 37.20 51.80 36.02Q52.95 34.85 53.95 33.75L54.95 32.20Q55.35 31.60 56.05 30.75Q56.75 29.90 57.25 29.15Q57.25 28.95 57.28 28.73Q57.30 28.50 57.45 28.20Q57.55 28.10 57.60 27.95Q57.65 27.80 57.70 27.65L57.70 27.60L57.65 27.60Q57.35 27.90 56.93 28Q56.50 28.10 56.15 28.30L55.65 28.70Q54.90 29.10 54.15 29.55Q53.40 30 52.70 30.55Q52.50 30.55 52.50 30.75Q52.40 30.75 51.88 31.15Q51.35 31.55 50.88 31.92Q50.40 32.30 50.40 32.35Q50.20 32.55 49.85 32.70Q49.50 32.85 49.50 33.20L49.20 33.20L49.20 33.60L48.95 33.60L48.95 33.65Q48.90 33.75 48.78 33.90Q48.65 34.05 48.50 34.10Q48.45 34.15 48.45 34.10L48.40 34.10Q48.35 34.25 48.28 34.27Q48.20 34.30 48.10 34.40L47.70 35L47.65 35L47.85 35.40Q47.75 35.40 47.40 35.65Q47.05 35.90 47.05 35.95L47.00 35.95L47.00 36.20Q46.65 36.25 46.58 36.50Q46.50 36.75 46.35 37L45.80 37.60L45.50 38.40L45.15 38.90Q45.10 38.95 45.03 39.10Q44.95 39.25 45.00 39.25L45.00 39.30Q45.10 39.30 44.98 39.45Q44.85 39.60 44.65 39.55Q44.60 39.75 44.35 40.30Q44.10 40.85 44.10 41.30Q44.10 42.05 44.95 41.90ZM55.60 44.20Q55.20 43.90 55.20 43.25Q55.20 42.95 55.25 42.80Q55.35 42.55 55.43 42.38Q55.50 42.20 55.55 42L55.70 41.75L56.15 40.85Q56.40 40.30 56.80 39.75Q57.20 39.20 57.55 38.70Q57.55 38.65 57.65 38.52Q57.75 38.40 57.75 38.40L58.50 37.30Q58.70 37.05 58.93 36.80Q59.15 36.55 59.20 36.25L59.25 36.20Q59.40 36.10 59.63 35.77Q59.85 35.45 59.95 35.25Q60.50 34.55 61.03 33.85Q61.55 33.15 62.05 32.45L62.15 32.30L59.45 34.50Q59.00 34.85 58.55 35.33Q58.10 35.80 57.60 36.25Q57.25 36.55 57.10 36.55Q57.00 36.55 57.00 36.40Q57.00 36.10 57.45 35.75Q57.80 35.50 58.00 35.23Q58.20 34.95 58.55 34.65Q58.80 34.45 59.18 33.95Q59.55 33.45 59.80 33.25Q60.15 33 60.68 32.38Q61.20 31.75 61.50 31.45Q62.80 30.25 63.25 29.60Q63.70 28.95 64.20 28.45L65.95 26.45Q66.10 26.30 66.30 26L66.70 25.75Q67.00 25.80 67.53 26.20Q68.05 26.60 67.75 27.20Q67.75 27.25 67.35 27.63Q66.95 28 66.55 28.40Q66.15 28.80 66.05 28.85Q65.95 28.85 65.95 28.90Q65.10 29.90 64.80 30.10Q64.50 30.30 64.48 30.35Q64.45 30.40 64.25 31Q64.10 31.10 63.98 31.27Q63.85 31.45 63.75 31.65L63.60 31.65Q63.55 31.85 63.43 31.98Q63.30 32.10 63.20 32.25L62.95 32.65L62.55 33.05L62.20 33.55Q62.10 33.70 62.03 33.85Q61.95 34 61.85 34.15Q61.65 34.40 61.43 34.67Q61.20 34.95 61.00 35.25Q60.85 35.45 60.65 35.58Q60.45 35.70 60.35 36Q60.30 36.10 60.20 36.42Q60.10 36.75 60.00 36.75Q60.00 37.15 59.73 37.35Q59.45 37.55 59.20 37.85L58.75 38.70L58.55 39.10L58.05 39.75L57.60 40.60Q57.35 41.10 56.93 41.60Q56.50 42.10 56.40 42.65Q56.35 42.65 56.18 43.05Q56.00 43.45 55.83 43.83Q55.65 44.20 55.60 44.20M66.95 44.70Q66.75 44.75 66.35 44.80Q65.95 44.85 65.50 44.85Q65.00 44.85 64.53 44.75Q64.05 44.65 63.85 44.45Q63.75 44.25 63.78 44.20Q63.80 44.15 63.70 43.95Q63.50 43.65 63.48 43.75Q63.45 43.85 63.35 43.55Q63.30 43.40 63.30 43Q63.30 42.40 63.38 41.67Q63.45 40.95 63.45 40.70Q63.45 40.05 63.63 39.48Q63.80 38.90 63.95 38.35Q64.20 37.30 64.65 36.35Q65.10 35.40 65.60 34.50Q66.00 33.80 66.45 33.08Q66.90 32.35 67.45 31.70L67.55 31.50Q67.30 31.55 67.10 31.77Q66.90 32 66.75 32.20Q66.60 32.40 66.35 32.65Q66.10 32.90 65.85 33.10Q64.05 34.75 62.13 36.88Q60.20 39 58.60 40.70Q57.40 41.90 57.10 41.90Q56.90 41.90 57.28 41.35Q57.65 40.80 58.50 40.15Q58.50 40.15 58.78 39.83Q59.05 39.50 59.05 39.45Q59.35 39.30 59.48 39.02Q59.60 38.75 59.95 38.55L60.70 37.75L61.10 37.15Q61.55 36.45 62.18 35.90Q62.80 35.35 63.35 34.70Q63.40 34.65 63.78 34.27Q64.15 33.90 64.20 33.90Q64.30 33.55 64.73 33.23Q65.15 32.90 65.35 32.70L66.55 31.45L66.60 31.40L66.70 31.45L66.65 31.40Q66.75 31.15 67.08 30.92Q67.40 30.70 67.60 30.50Q67.85 30.25 68.45 29.52Q69.05 28.80 69.85 28.80Q70.25 28.80 70.60 29Q70.75 29.05 71.13 29.40Q71.50 29.75 71.78 30.05Q72.05 30.35 71.90 30.45Q71.70 30.65 71.60 30.70Q71.40 30.85 70.93 31.30Q70.45 31.75 70.20 31.70Q70.20 31.70 69.98 32.05Q69.75 32.40 68.75 33.65Q68.65 33.55 68.28 34.20Q67.90 34.85 67.75 35.10Q67.50 35.65 67.18 36.02Q66.85 36.40 66.55 36.90L66.55 37Q66.55 37.15 66.45 37.23Q66.35 37.30 66.25 37.40L66.25 37.75Q66.25 37.90 66.03 38.38Q65.80 38.85 65.65 39.40Q65.80 39.95 65.60 40.30Q65.40 40.65 65.18 40.98Q64.95 41.30 65.00 41.85Q65.00 41.95 64.98 42.20Q64.95 42.45 64.95 42.80Q64.95 43.20 65.05 43.65Q65.15 44.10 65.40 44.35Q65.55 44.50 65.80 44.50Q66.30 44.50 66.90 44.17Q67.50 43.85 67.70 43.75L68.00 43.55Q68.00 43.60 68.00 43.60Q67.95 43.70 67.70 43.98Q67.45 44.25 67.50 44.35Q67.35 44.35 67.35 44.35L66.95 44.70ZM75.00 46.60Q74.80 46.65 74.45 46.73Q74.10 46.80 73.70 46.80Q73.20 46.80 72.68 46.60Q72.15 46.40 71.80 45.75Q71.70 45.55 71.70 45.50Q71.70 45.45 71.60 45.25Q71.40 45 71.38 45.08Q71.35 45.15 71.25 44.85Q71.10 44.45 71.33 43.65Q71.55 42.85 71.50 42.50Q71.45 41.85 71.78 41.13Q72.10 40.40 72.20 39.85Q72.45 38.85 72.80 37.90Q73.15 36.95 73.60 36.05Q73.95 35.45 74.25 34.75Q74.55 34.05 74.65 33.70L75.70 31.75Q75.80 31.65 75.75 31.67Q75.70 31.70 75.60 31.70Q75.55 31.70 75.43 31.88Q75.30 32.05 75.20 32.05L75.10 32.05Q75.00 32 74.48 31.98Q73.95 31.95 73.85 31.90Q73.60 31.50 73.50 30.90L73.60 29.50Q73.70 29.55 73.73 29.60Q73.75 29.65 73.85 29.65Q73.90 29.65 74.33 29.57Q74.75 29.50 75.15 29.45Q75.55 29.40 75.60 29.40Q75.70 29.40 76.10 29.42Q76.50 29.45 76.70 29.45Q77.10 29 77.55 28.60Q77.65 28.50 77.83 28.10Q78.00 27.70 78.05 27.70Q78.35 27.30 78.48 27.10Q78.60 26.90 78.95 26.50Q79.65 25.70 80.13 24.80Q80.60 23.90 81.35 23.20Q81.50 23.05 81.90 22.47Q82.30 21.90 82.70 21.38Q83.10 20.85 83.20 20.85L83.20 20.75Q83.20 20.50 83.00 20.45Q82.80 20.40 82.95 20.20Q83.35 19.80 84.08 19.07Q84.80 18.35 85.15 17.95Q85.75 17.35 86.60 17.35Q87.25 17.35 87.70 17.63Q88.15 17.90 88.00 18Q85.55 20 83.45 22.52Q81.35 25.05 80.15 26.95L79.90 27.35Q79.80 27.50 79.73 27.60Q79.65 27.70 79.55 27.85L79.15 28.55L78.70 29.35L78.65 29.45L78.70 29.45Q78.80 29.45 79.05 29.35Q79.30 29.25 79.40 29.25Q79.50 29.25 79.75 29.30Q80.00 29.35 80.10 29.35L80.25 29.35Q80.35 29.35 80.63 29.27Q80.90 29.20 81.00 29.20Q81.10 29.20 81.28 29.25Q81.45 29.30 81.60 29.30Q81.90 29.30 82.30 29.32Q82.70 29.35 83.00 29.40Q83.05 29.40 83.10 29.45Q83.15 29.50 83.20 29.50Q83.30 29.50 83.85 29.52Q84.40 29.55 84.50 29.55Q84.65 29.55 84.75 29.45Q84.75 29.60 84.80 29.65Q84.90 29.55 85.05 29.55Q85.20 29.55 85.35 29.50Q85.35 29.50 85.40 29.55Q85.45 29.60 85.40 29.65Q85.05 29.75 84.60 29.88Q84.15 30 84.05 30Q84.00 30 83.98 29.95Q83.95 29.90 83.85 29.90Q83.80 29.90 83.55 29.98Q83.30 30.05 83.15 30.05Q83.10 30.10 83.10 30.20Q83.05 30.20 82.98 30.13Q82.90 30.05 82.80 30.05Q82.75 30.05 82.53 30.10Q82.30 30.15 82.10 30.20Q82.05 30.25 82.05 30.45Q81.80 30.45 81.38 30.42Q80.95 30.40 80.95 30.40L80.65 30.50Q80.65 30.50 80.55 30.55Q80.45 30.60 80.35 30.70Q80.30 30.70 80.23 30.65Q80.15 30.60 80.05 30.60Q80.00 30.60 79.53 30.70Q79.05 30.80 78.80 30.90Q78.75 30.95 78.63 31.02Q78.50 31.10 78.40 31.10L77.55 31.10Q77.35 31.45 77.33 31.52Q77.30 31.60 77.10 31.95L76.55 32.90Q76.25 33.45 76.18 33.75Q76.10 34.05 76.00 34.35Q75.90 34.65 75.50 35.20Q75.15 35.70 75.03 36.23Q74.90 36.75 74.80 37Q74.55 37.55 74.45 37.92Q74.35 38.30 74.10 38.80L74.10 38.90Q74.10 39 74.03 39.08Q73.95 39.15 73.85 39.25L73.85 39.65Q73.85 39.75 73.65 40.23Q73.45 40.70 73.35 41.25Q73.40 41.40 73.40 41.70Q73.40 42.25 73.08 42.63Q72.75 43 72.85 43.70Q72.90 43.90 72.90 44.83Q72.90 45.75 73.40 46.20Q73.55 46.35 73.85 46.35Q74.35 46.35 74.93 46.02Q75.50 45.70 75.70 45.65L76.00 45.50Q76.00 45.55 76.00 45.55Q75.95 45.60 75.73 45.88Q75.50 46.15 75.55 46.25Q75.40 46.25 75.40 46.25L75.00 46.60ZM82.10 43.20Q81.70 43.40 81.00 43.40Q80.35 43.40 79.70 43.15Q78.85 42.80 78.50 41.95Q78.35 41.70 78.25 41.40Q78.15 41.10 78.15 40.75Q78.15 40.10 78.48 39.58Q78.80 39.05 79.05 38.55Q79.70 37.40 80.18 36.35Q80.65 35.30 81.60 34.35Q81.75 34.20 82.28 33.65Q82.80 33.10 83.33 32.58Q83.85 32.05 84.00 32.05Q83.95 32 84.13 31.85Q84.30 31.70 84.35 31.70L85.75 30.20L85.80 30.25Q85.90 30.25 85.95 30.02Q86.00 29.80 86.20 29.75L86.50 29.70L86.65 29.30Q86.80 28.90 86.98 28.77Q87.15 28.65 87.45 28.45L88.80 27.50L90.45 26.30Q90.55 26.20 90.50 26.13Q90.45 26.05 90.60 26Q91.00 25.95 91.00 25.95Q91.00 25.95 91.00 25.90Q91.25 25.80 91.58 25.72Q91.90 25.65 92.20 25.65Q92.60 25.65 93.13 26.10Q93.65 26.55 94.08 27.07Q94.50 27.60 94.50 28L94.45 28.50Q94.60 29.10 93.93 29.75Q93.25 30.40 92.43 30.88Q91.60 31.35 91.15 31.60L90.40 32.25L89.65 32.65L89.35 32.65L89.05 32.90Q89.05 32.80 88.90 32.80Q88.60 33.10 88.25 33.10L88.20 33.10Q88.00 33.30 87.75 33.45Q87.50 33.60 87.25 33.75L86.50 34.20Q86.30 34.30 86.08 34.35Q85.85 34.40 85.60 34.50L85.25 34.70L84.00 35L83.85 35.10Q83.70 35.25 83.65 35.15Q83.60 35.05 83.73 34.98Q83.85 34.90 83.90 34.85Q84.30 34.55 84.75 34.27Q85.20 34 85.60 33.75Q85.85 33.60 86.15 33.35Q86.45 33.10 86.80 33.10Q86.85 33 87.20 32.75Q87.55 32.50 87.95 32.27Q88.35 32.05 88.45 32.05Q88.50 32.05 88.50 32Q88.75 31.65 89.15 31.48Q89.55 31.30 89.85 31.10L90.90 30.30Q91.45 29.90 92.08 29.38Q92.70 28.85 93.05 28.20Q93.15 28.10 93.20 27.95Q93.25 27.80 93.30 27.65L93.30 27.60L93.20 27.60Q92.90 27.90 92.50 28Q92.10 28.10 91.70 28.30L91.25 28.70Q90.50 29.10 89.75 29.55Q89.00 30 88.30 30.55Q88.10 30.55 88.10 30.75Q88.00 30.75 87.45 31.15Q86.90 31.55 86.43 31.92Q85.95 32.30 85.95 32.35Q85.80 32.55 85.45 32.70Q85.10 32.85 85.10 33.20L84.75 33.20L84.75 33.60L84.55 33.60L84.55 33.65Q84.50 33.75 84.38 33.90Q84.25 34.05 84.10 34.10Q84.00 34.20 84.00 34.10Q83.95 34.25 83.85 34.27Q83.75 34.30 83.65 34.40L83.30 35L83.25 35L83.40 35.40Q83.35 35.40 83.00 35.65Q82.65 35.90 82.65 35.95L82.60 35.95L82.60 36.20Q82.25 36.25 82.18 36.50Q82.10 36.75 81.95 37L81.40 37.60L80.90 38.35L80.50 38.85Q80.45 38.90 80.38 39.08Q80.30 39.25 80.40 39.25L80.45 39.25L80.60 38.85Q80.70 39.05 80.35 39.70Q80.00 40.35 79.90 40.60Q79.85 40.70 79.85 40.85Q79.85 41 79.85 41.10Q79.85 41.45 79.80 41.65L79.70 41.95Q79.70 42 79.68 42.02Q79.65 42.05 79.65 42.10Q79.65 42.45 80.08 42.52Q80.50 42.60 80.75 42.55Q80.90 42.50 81.40 42.25Q81.90 42 82.35 41.73Q82.80 41.45 82.80 41.35L82.85 41.40L83.00 41.40Q83.20 41.15 83.55 40.95Q83.90 40.75 84.15 40.55Q84.95 39.95 85.75 39.25Q87.15 38.10 88.53 36.70Q89.90 35.30 91.10 34.05Q91.35 33.80 91.45 33.80Q91.55 33.80 91.55 33.95Q91.55 34.10 91.40 34.35Q91.25 34.65 90.68 35.17Q90.10 35.70 89.40 36.55L87.35 38.85Q86.55 39.80 85.65 40.63Q84.75 41.45 83.80 42.15Q83.40 42.45 82.98 42.73Q82.55 43 82.10 43.20M91.90 33.90Q91.80 33.90 91.80 33.70Q91.80 33.50 91.90 33.50Q91.95 33.50 92.10 33.42Q92.25 33.35 92.30 33.35Q92.35 33.35 92.35 33.40Q92.35 33.45 92.15 33.67Q91.95 33.90 91.90 33.90Z"/></g></g></svg>